<?xml version="1.0" encoding="UTF-8" standalone="no"?>
<!-- Created with Inkscape (http://www.inkscape.org/) -->

<svg
   xmlns:dc="http://purl.org/dc/elements/1.1/"
   xmlns:cc="http://creativecommons.org/ns#"
   xmlns:rdf="http://www.w3.org/1999/02/22-rdf-syntax-ns#"
   xmlns:svg="http://www.w3.org/2000/svg"
   xmlns="http://www.w3.org/2000/svg"
   xmlns:sodipodi="http://sodipodi.sourceforge.net/DTD/sodipodi-0.dtd"
   xmlns:inkscape="http://www.inkscape.org/namespaces/inkscape"
   width="210mm"
   height="297mm"
   viewBox="0 0 210 297"
   version="1.1"
   id="svg45"
   inkscape:version="0.92.3 (2405546, 2018-03-11)"
   sodipodi:docname=" bkschrift2.svg">
  <defs
     id="defs39" />
  <sodipodi:namedview
     id="base"
     pagecolor="#ffffff"
     bordercolor="#666666"
     borderopacity="1.0"
     inkscape:pageopacity="0.0"
     inkscape:pageshadow="2"
     inkscape:zoom="2.8"
     inkscape:cx="467.22794"
     inkscape:cy="780.1645"
     inkscape:document-units="mm"
     inkscape:current-layer="layer1"
     showgrid="false"
     inkscape:window-width="1920"
     inkscape:window-height="971"
     inkscape:window-x="0"
     inkscape:window-y="31"
     inkscape:window-maximized="1"
     showguides="true"
     inkscape:guide-bbox="true">
    <sodipodi:guide
       position="100.91964,213.46206"
       orientation="1,0"
       id="guide108"
       inkscape:locked="false" />
    <sodipodi:guide
       position="93.927081,216.39138"
       orientation="0,1"
       id="guide110"
       inkscape:locked="false" />
    <sodipodi:guide
       position="89.769343,204.8631"
       orientation="0,1"
       id="guide112"
       inkscape:locked="false" />
    <sodipodi:guide
       position="66.145832,209.39882"
       orientation="1,0"
       id="guide114"
       inkscape:locked="false" />
  </sodipodi:namedview>
  <metadata
     id="metadata42">
    <rdf:RDF>
      <cc:Work
         rdf:about="">
        <dc:format>image/svg+xml</dc:format>
        <dc:type
           rdf:resource="http://purl.org/dc/dcmitype/StillImage" />
        <dc:title></dc:title>
      </cc:Work>
    </rdf:RDF>
  </metadata>
  <g
     inkscape:label="Ebene 1"
     inkscape:groupmode="layer"
     id="layer1">
    <path
       style="stroke-width:0.99999994"
       d="m 250,304.66251 0,43.57145 131.42856,0 0,-43.57145 z m 28.99414,2.46249 c 0.64,0 1.19969,0.21396 1.67969,0.64062 0.24,0.24 0.42721,0.5055 0.56055,0.79883 0.16,0.29334 0.24023,0.62667 0.24023,1 v 5.56055 h 2.32031 c 0.53334,0 0.9593,0.16047 1.2793,0.48047 0.45333,0.4 0.67969,0.87945 0.67969,1.43945 0,0.56 -0.22636,1.04141 -0.67969,1.44141 -0.13334,0.10666 -0.26707,0.18494 -0.40039,0.23828 -0.13334,0.0533 -0.26512,0.10684 -0.39844,0.16016 -0.13334,0.0533 -0.28141,0.0801 -0.44141,0.0801 h -2.35937 -5 -2.19922 c -0.53333,0 -0.96125,-0.15851 -1.28125,-0.47851 -0.42667,-0.37334 -0.63867,-0.85474 -0.63867,-1.44141 0,-0.58666 0.212,-1.06612 0.63867,-1.43945 0.16,-0.16 0.36156,-0.27938 0.60156,-0.35938 0.18666,-0.08 0.39867,-0.12109 0.63868,-0.12109 h 2.24023 v -5.51953 c 0,-0.16 0.0267,-0.34721 0.0801,-0.56055 v -0.11914 l 0.041,-0.0801 v -0.041 l 0.0391,-0.0801 0.0391,-0.0801 v -0.0391 c 0.16,-0.32 0.36156,-0.59984 0.60156,-0.83985 0.48,-0.42666 1.05208,-0.64062 1.71875,-0.64062 z m -14.73047,7.36133 v 4.03906 c -0.74666,0.0533 -1.3083,0.29405 -1.68164,0.7207 -0.34666,0.42667 -0.51953,0.87938 -0.51953,1.35938 0,0.53333 0.21396,0.97364 0.64062,1.32031 0.42667,0.32 0.94722,0.61224 1.56055,0.87891 v 4.52148 c -0.90666,-0.29333 -1.78729,-0.59992 -2.64062,-0.91992 -0.85333,-0.32 -1.62698,-0.69443 -2.32032,-1.12109 -0.66666,-0.45334 -1.21395,-1.00063 -1.64062,-1.64063 -0.4,-0.66666 -0.59961,-1.49185 -0.59961,-2.47851 0,-0.98667 0.18722,-1.87969 0.56055,-2.67969 0.4,-0.82667 0.92054,-1.53443 1.56054,-2.1211 0.66667,-0.58666 1.42597,-1.03937 2.2793,-1.35937 0.88,-0.32 1.81412,-0.49287 2.80078,-0.51953 z m 1.19922,0 c 0.53333,0.0533 1.08063,0.15836 1.64063,0.31836 0.56,0.13334 1.10533,0.3473 1.63867,0.64062 0.53333,0.26667 1.02713,0.62675 1.48047,1.08008 0.45333,0.42667 0.84015,0.94721 1.16015,1.56055 v 0.0801 c 0.16,0.37333 0.24024,0.71906 0.24024,1.03906 0,0.69333 -0.24071,1.26737 -0.72071,1.7207 -0.45333,0.45334 -0.99867,0.67969 -1.63867,0.67969 -0.21334,0 -0.45404,-0.0391 -0.7207,-0.11914 -0.26667,-0.08 -0.51977,-0.20133 -0.75977,-0.36133 -0.21334,-0.16 -0.40055,-0.34721 -0.56054,-0.56055 -0.16,-0.21334 -0.24024,-0.43969 -0.24024,-0.67968 -0.13334,-0.29334 -0.32055,-0.54644 -0.56054,-0.75977 -0.21335,-0.24 -0.53233,-0.41287 -0.95899,-0.51953 z m 29.77539,0 v 4.27929 c -0.82666,0.08 -1.55922,0.27961 -2.19922,0.59961 -0.64,0.29334 -1.18729,0.66776 -1.64062,1.1211 -0.42667,0.45333 -0.7724,0.94518 -1.03906,1.47851 -0.24001,0.53334 -0.38613,1.04149 -0.43946,1.52149 h 5.31836 v 3.79883 h -5.39844 c 0.0534,0.77333 0.23861,1.48109 0.5586,2.12109 0.32,0.61333 0.73357,1.14628 1.24023,1.59961 0.50667,0.42667 1.06636,0.7724 1.67969,1.03906 0.61333,0.24 1.25326,0.38807 1.91992,0.44141 v 4.31836 c -1.52,-0.08 -2.91922,-0.44008 -4.19922,-1.08008 -1.28,-0.64 -2.38698,-1.46518 -3.32031,-2.47852 -0.90667,-1.04 -1.62682,-2.20047 -2.16016,-3.48047 -0.50666,-1.30666 -0.75976,-2.66674 -0.75976,-4.08007 0,-1.44 0.2531,-2.81443 0.75976,-4.1211 0.53334,-1.33333 1.26784,-2.50619 2.20118,-3.51953 0.93333,-1.01333 2.02596,-1.84047 3.27929,-2.48047 1.28,-0.64 2.67922,-0.99812 4.19922,-1.07812 z m 1.20117,0 c 1.46667,0.08 2.82675,0.42573 4.08008,1.03906 1.28,0.61333 2.38698,1.39938 3.32031,2.35938 0.93334,0.96 1.66589,2.05458 2.19922,3.28125 0.53333,1.2 0.80078,2.43875 0.80078,3.71875 -0.0533,0.66666 -0.32079,1.2407 -0.80078,1.7207 -0.45333,0.45333 -1.02737,0.67969 -1.7207,0.67969 h -7.87891 v -3.79883 h 5.40039 c -0.0533,-0.48 -0.21381,-0.98815 -0.48046,-1.52149 -0.24001,-0.53333 -0.58769,-1.02518 -1.04102,-1.47851 -0.45333,-0.45334 -1.01302,-0.84016 -1.67969,-1.16016 -0.64,-0.34666 -1.37255,-0.54823 -2.19922,-0.60156 z m 45.83985,0 c 0.69333,0 1.26541,0.22635 1.71875,0.67969 0.48,0.42666 0.74745,0.98635 0.80078,1.67968 l -0.041,17.51953 c -0.0267,0.69334 -0.27976,1.27977 -0.75976,1.75977 -0.48,0.45333 -1.05208,0.67969 -1.71875,0.67969 -0.69333,0 -1.28172,-0.22636 -1.76172,-0.67969 -0.45334,-0.48 -0.70643,-1.05208 -0.75977,-1.71875 V 316.8457 c 0.0533,-0.61333 0.30644,-1.16062 0.75977,-1.64062 0.48,-0.48 1.06839,-0.71875 1.76172,-0.71875 z m -16.62696,0.0781 v 4.72071 c -0.8,0.08 -1.5469,0.29396 -2.24023,0.64062 -0.66667,0.34667 -1.2531,0.79938 -1.75977,1.35938 -0.50666,0.56 -0.90588,1.21427 -1.19922,1.96093 -0.29333,0.74667 -0.4414,1.55946 -0.4414,2.43946 0,0.88 0.14807,1.69278 0.4414,2.43945 0.29334,0.74667 0.69256,1.40094 1.19922,1.96094 0.50667,0.56 1.0931,1.01271 1.75977,1.35937 0.69333,0.34667 1.44023,0.56063 2.24023,0.64063 v 4.71875 c -1.73333,-0.08 -3.26627,-0.45247 -4.59961,-1.11914 -1.30666,-0.66667 -2.41364,-1.52055 -3.32031,-2.56055 -0.90667,-1.04 -1.58768,-2.20047 -2.04101,-3.48047 -0.45334,-1.30666 -0.67969,-2.62565 -0.67969,-3.95898 0,-1.30667 0.22635,-2.60086 0.67969,-3.88086 0.45333,-1.30667 1.13434,-2.47953 2.04101,-3.51953 0.90667,-1.04 2.01365,-1.89388 3.32031,-2.56055 1.33334,-0.69333 2.86628,-1.08016 4.59961,-1.16016 z m 1.19922,0 c 1.73333,0.08 3.25388,0.46683 4.56055,1.16016 1.33333,0.66667 2.45271,1.52055 3.35937,2.56055 0.90667,1.04 1.58769,2.21286 2.04102,3.51953 0.45333,1.28 0.67969,2.57419 0.67969,3.88086 0,1.33333 -0.22636,2.65232 -0.67969,3.95898 -0.45333,1.28 -1.13435,2.44047 -2.04102,3.48047 -0.90666,1.04 -2.02604,1.89388 -3.35937,2.56055 -1.30667,0.66667 -2.82722,1.03914 -4.56055,1.11914 v -4.71875 c 0.8,-0.08 1.53451,-0.29396 2.20117,-0.64063 0.69334,-0.34666 1.27977,-0.79937 1.75977,-1.35937 0.50667,-0.56 0.90588,-1.21427 1.19922,-1.96094 0.29333,-0.74667 0.44141,-1.55945 0.4414,-2.43945 0,-0.88 -0.14807,-1.69279 -0.4414,-2.43946 -0.29334,-0.74666 -0.69255,-1.40093 -1.19922,-1.96093 -0.48,-0.56 -1.06643,-1.01271 -1.75977,-1.35938 -0.66666,-0.34666 -1.40117,-0.56062 -2.20117,-0.64062 z m 44.95508,0 c 0.64,0 1.19969,0.24071 1.67969,0.72071 0.50666,0.45333 0.78846,1.02737 0.84179,1.7207 v 16.71875 c 10e-6,1.73333 -0.16046,3.188 -0.48046,4.36133 -0.32,1.17333 -0.8138,2.20008 -1.48047,3.08008 -0.90667,1.2 -2.20086,2.21239 -3.88086,3.03906 -1.68,0.85333 -3.59977,1.28125 -5.75977,1.28125 -1.30666,0 -2.54541,-0.17482 -3.71875,-0.52149 -1.17333,-0.32 -2.21443,-0.76031 -3.12109,-1.32031 -0.88,-0.56 -1.58581,-1.19992 -2.11914,-1.91992 -0.50667,-0.69333 -0.75977,-1.39914 -0.75977,-2.11914 0,-0.72 0.2531,-1.35992 0.75977,-1.91992 0.53333,-0.53334 1.18565,-0.80078 1.95898,-0.80078 0.53333,0 0.96125,0.13372 1.28125,0.40039 0.34667,0.29333 0.66566,0.62666 0.95899,1 0.29333,0.37333 0.61427,0.76015 0.96093,1.16015 0.34667,0.42667 0.79938,0.77435 1.35938,1.04102 0.53333,0.26666 1.03953,0.45192 1.51953,0.55859 0.48,0.10666 0.89357,0.16016 1.24024,0.16016 0.74666,0 1.48117,-0.13373 2.20117,-0.40039 0.74666,-0.26667 1.41333,-0.66589 2,-1.19922 0.61333,-0.50667 1.10518,-1.16094 1.47851,-1.96094 0.37334,-0.77333 0.56055,-1.6931 0.56055,-2.75976 v -17.79883 c 0,-0.69333 0.2407,-1.27977 0.7207,-1.75977 0.50667,-0.50667 1.1055,-0.76172 1.79883,-0.76172 z m -9.35937,0.041 c 1.12,0 2.15914,0.17286 3.11914,0.51953 0.96,0.34667 1.78713,0.82612 2.48047,1.43945 v 5.16016 c -0.48001,-0.72 -1.14667,-1.30643 -2,-1.75977 -0.82667,-0.45333 -1.82667,-0.67968 -3,-0.67968 -0.85334,0 -1.66612,0.16047 -2.43946,0.48046 -0.74666,0.32 -1.41333,0.76032 -2,1.32032 -0.56,0.56 -1.0127,1.22667 -1.35937,2 -0.32,0.77333 -0.48047,1.62526 -0.48047,2.55859 0,0.93333 0.14612,1.80156 0.43945,2.60156 0.32,0.8 0.76031,1.49341 1.32031,2.08008 0.56,0.56 1.22667,1.01271 2,1.35938 0.77334,0.32 1.61287,0.48047 2.51954,0.48047 1.04,0 2.00085,-0.21396 2.88085,-0.64063 0.88,-0.42667 1.58581,-1.02745 2.11915,-1.80078 v 5 c -0.61334,0.61333 -1.38698,1.13388 -2.32032,1.56055 -0.90666,0.4 -1.99929,0.59961 -3.27929,0.59961 -1.52,0 -2.93357,-0.2655 -4.24024,-0.79883 -1.30666,-0.56 -2.44039,-1.32125 -3.40039,-2.28125 -0.96,-0.98667 -1.7193,-2.15953 -2.2793,-3.51953 -0.53333,-1.36 -0.80078,-2.85381 -0.80078,-4.48047 0,-1.70667 0.27985,-3.25201 0.83985,-4.63867 0.58666,-1.38667 1.36031,-2.56149 2.32031,-3.52149 0.98666,-0.98666 2.13474,-1.73161 3.4414,-2.23828 1.30667,-0.53333 2.67915,-0.80078 4.11915,-0.80078 z m -13.44922,0.0391 c 0.50667,0 0.94698,0.13373 1.32031,0.40039 0.37333,0.24 0.66752,0.54659 0.88086,0.91992 l 0.0391,0.0801 c 0.16,0.32 0.24024,0.68008 0.24024,1.08008 0,0.64 -0.21396,1.19969 -0.64063,1.67969 -0.42667,0.45333 -0.97201,0.70643 -1.63867,0.75976 -1.41334,0.13334 -2.48117,0.6004 -3.20117,1.40039 v -5.03906 c 0.29333,-0.26667 0.64101,-0.49302 1.04101,-0.67969 0.4,-0.21334 0.84031,-0.38816 1.32032,-0.52148 h 0.0801 c 0.21334,-0.0533 0.39861,-0.0801 0.5586,-0.0801 z m -72.52344,5.52149 h 5 v 14.16015 c 0,0.24 -0.0124,0.41287 -0.0391,0.51953 l -0.041,0.11914 v 0.0801 l -0.0391,0.0801 -0.041,0.0801 v 0.041 l -0.0391,0.0801 c -0.13334,0.29334 -0.32055,0.55883 -0.56055,0.79883 -0.24,0.21334 -0.50745,0.38621 -0.80078,0.51953 -0.29333,0.10666 -0.59992,0.16016 -0.91992,0.16016 -0.34667,0 -0.66565,-0.0535 -0.95898,-0.16016 -0.29334,-0.13334 -0.54644,-0.30621 -0.75977,-0.51953 -0.53333,-0.48 -0.80078,-1.07883 -0.80078,-1.79883 z m -11.01172,3.03906 0.19922,0.0801 c 0.82667,0.21334 1.6538,0.46644 2.48047,0.75976 0.85333,0.26667 1.61458,0.6411 2.28125,1.1211 0.69333,0.45333 1.23867,1.05216 1.63867,1.79882 0.42667,0.72 0.64063,1.65412 0.64062,2.80078 0,1.01334 -0.18721,1.9331 -0.56054,2.75977 -0.37334,0.82667 -0.89388,1.54682 -1.56055,2.16016 -0.66666,0.58666 -1.43836,1.06612 -2.31836,1.43945 -0.88,0.34667 -1.81411,0.56062 -2.80078,0.64062 v -4.12109 c 0.64,-0.13334 1.16055,-0.39883 1.56055,-0.79883 0.42667,-0.42666 0.63867,-0.94721 0.63867,-1.56054 0,-0.61334 -0.17286,-1.09279 -0.51953,-1.43946 -0.34667,-0.34666 -0.90636,-0.69435 -1.67969,-1.04101 z m -6,5.7207 c 0.45333,0 0.8669,0.11938 1.24023,0.35938 0.40001,0.21334 0.7066,0.51993 0.91993,0.91992 l 0.0801,0.12109 c 0.0267,0.0533 0.0658,0.15836 0.11915,0.31836 v 0.0801 c 0.21334,0.66667 0.56102,1.14807 1.04101,1.44141 0.48,0.26666 0.94706,0.43953 1.40039,0.51953 v 4.08007 c -0.64,-0.0267 -1.30667,-0.11929 -2,-0.27929 -0.69333,-0.18666 -1.36,-0.45411 -2,-0.80078 -0.64,-0.34667 -1.22839,-0.78698 -1.76172,-1.32032 -0.53333,-0.53333 -0.95929,-1.18565 -1.27929,-1.95898 -0.0534,-0.21334 -0.0925,-0.38816 -0.11914,-0.52148 -0.0534,-0.16 -0.0801,-0.33287 -0.0801,-0.51954 0,-0.66666 0.22635,-1.2407 0.67968,-1.7207 0.48001,-0.48 1.06644,-0.71875 1.75977,-0.71875 z m 43.33594,0.0801 c 0.64,0 1.21404,0.2531 1.7207,0.75976 0.53334,0.48001 0.79883,1.06644 0.79883,1.75977 0,0.69333 -0.29224,1.36 -0.87891,2 -0.58667,0.64 -1.32117,1.19969 -2.20117,1.67969 -0.88,0.48 -1.83891,0.86682 -2.8789,1.16015 -1.04001,0.29334 -2.01326,0.43946 -2.91993,0.43946 v -4.31836 c 0.98667,-0.0533 1.8262,-0.28165 2.51953,-0.68164 0.69334,-0.42667 1.26738,-0.97201 1.72071,-1.63867 l 0.0801,-0.0801 c 0.21334,-0.29334 0.49318,-0.54643 0.83984,-0.75977 0.37333,-0.21334 0.77255,-0.32031 1.19922,-0.32031 z m 8.28515,2.51953 c 0.72,0 1.33318,0.26745 1.83985,0.80078 0.53333,0.50667 0.80078,1.11985 0.80078,1.83985 0,0.72 -0.26745,1.34557 -0.80078,1.8789 -0.50667,0.50667 -1.11985,0.75977 -1.83985,0.75977 -0.72,0 -1.33317,-0.2531 -1.83984,-0.75977 -0.50667,-0.53333 -0.75976,-1.1589 -0.75976,-1.8789 0,-0.72 0.25309,-1.33318 0.75976,-1.83985 0.50667,-0.53333 1.11984,-0.80078 1.83984,-0.80078 z"
       transform="scale(0.26458333)"
       id="rect86"
       inkscape:connector-curvature="0"
       sodipodi:nodetypes="cccccsccscscscccsccscsccscsccccccccscccscccsccsccccccccccscscccccccccccccccccccccsccscsccccccccsccccccccsccccsccccscccccsccccccscscsccccccsccccccccccccccscccsccscccscscccccscccsssssscccscccscccsscccscccscscsscccscccccccsccscccccccccsccscccccccccccccscccscccccccccscccscsscssscccccccsscssscscs" />
    <g
       aria-label="ste.org"
       style="font-style:normal;font-variant:normal;font-weight:normal;font-stretch:normal;font-size:10.58333302px;line-height:125%;font-family:'Arial Black';-inkscape-font-specification:'Arial Black, ';letter-spacing:0px;word-spacing:0px;fill:#000000;fill-opacity:1;stroke:none;stroke-width:0.26458332px;stroke-linecap:butt;stroke-linejoin:miter;stroke-opacity:1"
       id="text68" />
  </g>
</svg>
