<?xml version="1.0" encoding="UTF-8" standalone="no"?>
<!-- Created with Inkscape (http://www.inkscape.org/) -->

<svg
   xmlns:dc="http://purl.org/dc/elements/1.1/"
   xmlns:cc="http://creativecommons.org/ns#"
   xmlns:rdf="http://www.w3.org/1999/02/22-rdf-syntax-ns#"
   xmlns:svg="http://www.w3.org/2000/svg"
   xmlns="http://www.w3.org/2000/svg"
   xmlns:sodipodi="http://sodipodi.sourceforge.net/DTD/sodipodi-0.dtd"
   xmlns:inkscape="http://www.inkscape.org/namespaces/inkscape"
   width="210mm"
   height="297mm"
   viewBox="0 0 210 297"
   version="1.1"
   id="svg8"
   inkscape:version="0.92.3 (2405546, 2018-03-11)"
   sodipodi:docname="BetonIstLeben.svg">
  <defs
     id="defs2" />
  <sodipodi:namedview
     id="base"
     pagecolor="#ffffff"
     bordercolor="#666666"
     borderopacity="1.0"
     inkscape:pageopacity="0.0"
     inkscape:pageshadow="2"
     inkscape:zoom="1.979899"
     inkscape:cx="309.21644"
     inkscape:cy="814.29224"
     inkscape:document-units="mm"
     inkscape:current-layer="layer1"
     showgrid="false"
     inkscape:window-width="1920"
     inkscape:window-height="971"
     inkscape:window-x="0"
     inkscape:window-y="31"
     inkscape:window-maximized="1" />
  <metadata
     id="metadata5">
    <rdf:RDF>
      <cc:Work
         rdf:about="">
        <dc:format>image/svg+xml</dc:format>
        <dc:type
           rdf:resource="http://purl.org/dc/dcmitype/StillImage" />
        <dc:title></dc:title>
      </cc:Work>
    </rdf:RDF>
  </metadata>
  <g
     inkscape:label="Ebene 1"
     inkscape:groupmode="layer"
     id="layer1">
    <path
       style="stroke-width:0.99999994"
       d="M 143.94727 133.07617 L 143.94727 242.67773 L 321.73438 242.67773 L 321.73438 133.07617 L 143.94727 133.07617 z M 158.68555 147.125 C 159.32555 147.125 159.88523 147.33896 160.36523 147.76562 C 160.92523 148.27229 161.20508 148.89787 161.20508 149.64453 L 161.20508 174.32617 C 161.20508 174.96617 160.95198 175.53826 160.44531 176.04492 C 159.96531 176.52492 159.37888 176.76563 158.68555 176.76562 C 158.04555 176.76562 157.47151 176.53927 156.96484 176.08594 C 156.48484 175.63261 156.21935 175.04617 156.16602 174.32617 L 156.16602 149.56445 C 156.21936 148.87112 156.47246 148.29904 156.92578 147.8457 C 157.40578 147.3657 157.99221 147.125 158.68555 147.125 z M 208.94922 147.125 C 209.58922 147.125 210.15086 147.33896 210.63086 147.76562 C 210.87086 148.00562 211.05612 148.27112 211.18945 148.56445 C 211.34945 148.85779 211.42969 149.19112 211.42969 149.56445 L 211.42969 155.125 L 213.75 155.125 C 214.28333 155.125 214.7093 155.28547 215.0293 155.60547 C 215.48263 156.00547 215.71094 156.48492 215.71094 157.04492 C 215.71094 157.60492 215.48263 158.08633 215.0293 158.48633 C 214.89596 158.59299 214.76419 158.67127 214.63086 158.72461 C 214.49752 158.77795 214.36379 158.83145 214.23047 158.88477 C 214.09713 158.93811 213.95101 158.96484 213.79102 158.96484 L 211.42969 158.96484 L 206.42969 158.96484 L 204.23047 158.96484 C 203.69713 158.96484 203.26922 158.80633 202.94922 158.48633 C 202.52255 158.11299 202.31055 157.63159 202.31055 157.04492 C 202.31055 156.45825 202.52255 155.9788 202.94922 155.60547 C 203.10922 155.44547 203.31078 155.32609 203.55078 155.24609 C 203.73744 155.16609 203.94945 155.125 204.18945 155.125 L 206.42969 155.125 L 206.42969 149.60547 C 206.42969 149.44547 206.45642 149.25826 206.50977 149.04492 L 206.50977 148.92578 L 206.55078 148.8457 L 206.55078 148.80469 L 206.58984 148.72461 L 206.63086 148.64453 L 206.63086 148.60547 C 206.79086 148.28547 206.99047 148.00562 207.23047 147.76562 C 207.71047 147.33896 208.28255 147.125 208.94922 147.125 z M 302.38672 147.125 C 303.02672 147.125 303.58836 147.33896 304.06836 147.76562 C 304.30836 148.00562 304.49362 148.27112 304.62695 148.56445 C 304.78695 148.85779 304.86719 149.19112 304.86719 149.56445 L 304.86719 155.125 L 307.1875 155.125 C 307.72083 155.125 308.1468 155.28547 308.4668 155.60547 C 308.92013 156.00547 309.14844 156.48492 309.14844 157.04492 C 309.14844 157.60492 308.92013 158.08633 308.4668 158.48633 C 308.33346 158.59299 308.20168 158.67127 308.06836 158.72461 C 307.93502 158.77795 307.80129 158.83145 307.66797 158.88477 C 307.53463 158.93811 307.38851 158.96484 307.22852 158.96484 L 304.86719 158.96484 L 299.86719 158.96484 L 297.66797 158.96484 C 297.13463 158.96484 296.70672 158.80633 296.38672 158.48633 C 295.96005 158.11299 295.74805 157.63159 295.74805 157.04492 C 295.74805 156.45825 295.96005 155.9788 296.38672 155.60547 C 296.54672 155.44547 296.74828 155.32609 296.98828 155.24609 C 297.17494 155.16609 297.38695 155.125 297.62695 155.125 L 299.86719 155.125 L 299.86719 149.60547 C 299.86719 149.44547 299.89392 149.25826 299.94727 149.04492 L 299.94727 148.92578 L 299.98828 148.8457 L 299.98828 148.80469 L 300.02734 148.72461 L 300.06836 148.64453 L 300.06836 148.60547 C 300.22836 148.28547 300.42797 148.00562 300.66797 147.76562 C 301.14797 147.33896 301.72005 147.125 302.38672 147.125 z M 276.32617 147.76562 C 277.0195 147.76562 277.60789 147.99198 278.08789 148.44531 C 278.59456 148.89865 278.84766 149.47268 278.84766 150.16602 L 278.84766 150.36523 C 278.821 151.05857 278.5679 151.63261 278.08789 152.08594 C 277.60789 152.53927 277.0195 152.76563 276.32617 152.76562 C 275.63284 152.76562 275.04641 152.52492 274.56641 152.04492 C 274.08641 151.56492 273.84766 150.97849 273.84766 150.28516 C 273.84766 149.51182 274.1275 148.8719 274.6875 148.36523 C 275.1675 147.96523 275.71284 147.76562 276.32617 147.76562 z M 168.20508 154.44531 C 169.43175 154.44531 170.67245 154.67167 171.92578 155.125 C 173.17912 155.57833 174.29849 156.27174 175.28516 157.20508 C 176.29849 158.11174 177.11323 159.25786 177.72656 160.64453 C 178.36656 162.0312 178.68555 163.64633 178.68555 165.48633 C 178.68555 167.27299 178.39331 168.87182 177.80664 170.28516 C 177.24664 171.67182 176.47299 172.84469 175.48633 173.80469 C 174.49966 174.76469 173.35159 175.49919 172.04492 176.00586 C 170.76492 176.51253 169.40484 176.76563 167.96484 176.76562 C 166.81818 176.76562 165.76664 176.59276 164.80664 176.24609 C 163.87331 175.87276 163.07292 175.39135 162.40625 174.80469 L 162.40625 169.80469 C 162.93958 170.49802 163.61865 171.05966 164.44531 171.48633 C 165.27198 171.88633 166.20609 172.08594 167.24609 172.08594 C 168.25943 172.08594 169.16484 171.89872 169.96484 171.52539 C 170.76484 171.15206 171.43151 170.65826 171.96484 170.04492 C 172.52484 169.43159 172.95276 168.73818 173.24609 167.96484 C 173.53943 167.19151 173.68555 166.39112 173.68555 165.56445 C 173.68555 164.68445 173.52508 163.85927 173.20508 163.08594 C 172.88508 162.3126 172.44477 161.63159 171.88477 161.04492 C 171.32477 160.43159 170.6581 159.95213 169.88477 159.60547 C 169.11143 159.2588 168.2719 159.08594 167.36523 159.08594 C 166.2719 159.08594 165.29865 159.31229 164.44531 159.76562 C 163.61865 160.19229 162.93958 160.75198 162.40625 161.44531 L 162.40625 156.48633 C 163.36625 155.68633 164.37865 155.15143 165.44531 154.88477 C 166.51198 154.59143 167.43175 154.44531 168.20508 154.44531 z M 276.32617 154.44531 C 276.99284 154.44531 277.56688 154.67167 278.04688 155.125 C 278.52688 155.57833 278.79432 156.13802 278.84766 156.80469 L 278.84766 174.36523 C 278.821 175.05857 278.5679 175.63261 278.08789 176.08594 C 277.60789 176.53927 277.0195 176.76563 276.32617 176.76562 C 275.6595 176.76563 275.08742 176.53927 274.60742 176.08594 C 274.12742 175.63261 273.87432 175.05857 273.84766 174.36523 L 273.84766 156.80469 C 273.901 156.11135 274.16649 155.55167 274.64648 155.125 C 275.12648 154.67167 275.68617 154.44531 276.32617 154.44531 z M 190.58594 154.48633 L 190.58594 158.76562 C 189.75927 158.84563 189.02477 159.04523 188.38477 159.36523 C 187.74477 159.65857 187.19747 160.033 186.74414 160.48633 C 186.31747 160.93966 185.97174 161.43151 185.70508 161.96484 C 185.46508 162.49818 185.31896 163.00633 185.26562 163.48633 L 190.58594 163.48633 L 190.58594 167.28516 L 185.18555 167.28516 C 185.23889 168.05849 185.42415 168.76625 185.74414 169.40625 C 186.06414 170.01958 186.47771 170.55253 186.98438 171.00586 C 187.49104 171.43253 188.05268 171.77825 188.66602 172.04492 C 189.27935 172.28492 189.91927 172.433 190.58594 172.48633 L 190.58594 176.80469 C 189.06594 176.72469 187.66477 176.36461 186.38477 175.72461 C 185.10477 175.08461 183.99779 174.25943 183.06445 173.24609 C 182.15779 172.20609 181.43763 171.04562 180.9043 169.76562 C 180.39763 168.45896 180.14453 167.09888 180.14453 165.68555 C 180.14453 164.24555 180.39763 162.87112 180.9043 161.56445 C 181.43763 160.23112 182.17213 159.05826 183.10547 158.04492 C 184.0388 157.03159 185.13143 156.20445 186.38477 155.56445 C 187.66477 154.92445 189.06594 154.56633 190.58594 154.48633 z M 191.78516 154.48633 C 193.25182 154.56633 194.6119 154.91206 195.86523 155.52539 C 197.14523 156.13872 198.25222 156.92477 199.18555 157.88477 C 200.11888 158.84477 200.85143 159.93935 201.38477 161.16602 C 201.9181 162.36602 202.18555 163.60477 202.18555 164.88477 C 202.13221 165.55143 201.86476 166.12547 201.38477 166.60547 C 200.93143 167.0588 200.35935 167.28516 199.66602 167.28516 L 191.78516 167.28516 L 191.78516 163.48633 L 197.18555 163.48633 C 197.13221 163.00633 196.97174 162.49818 196.70508 161.96484 C 196.46508 161.43151 196.11935 160.93966 195.66602 160.48633 C 195.21268 160.033 194.65104 159.64617 193.98438 159.32617 C 193.34437 158.9795 192.61182 158.77794 191.78516 158.72461 L 191.78516 154.48633 z M 242.90039 154.48633 C 243.56706 154.48633 244.14109 154.72508 244.62109 155.20508 C 245.12776 155.65841 245.38086 156.2057 245.38086 156.8457 L 245.38086 174.20508 L 245.38086 174.36523 C 245.3542 175.05857 245.1011 175.645 244.62109 176.125 C 244.14109 176.57833 243.55466 176.80469 242.86133 176.80469 C 242.19466 176.80469 241.62062 176.57833 241.14062 176.125 C 240.66062 175.645 240.40753 175.07292 240.38086 174.40625 L 240.38086 156.8457 C 240.4342 156.17904 240.6873 155.61935 241.14062 155.16602 C 241.62062 154.71268 242.20706 154.48633 242.90039 154.48633 z M 251.58008 154.48633 C 253.28674 154.48633 254.67357 154.77857 255.74023 155.36523 C 256.8069 155.9519 257.63404 156.6988 258.2207 157.60547 C 258.83404 158.51214 259.23326 159.49779 259.41992 160.56445 C 259.63326 161.60445 259.74023 162.57966 259.74023 163.48633 L 259.74023 174.32617 C 259.74023 175.0195 259.50148 175.60594 259.02148 176.08594 C 258.54148 176.56594 257.9531 176.80469 257.25977 176.80469 C 256.56643 176.80469 255.9676 176.56594 255.46094 176.08594 C 254.98094 175.60594 254.74023 175.0195 254.74023 174.32617 L 254.74023 164.72461 C 254.74023 163.95128 254.66 163.23112 254.5 162.56445 C 254.36666 161.87112 254.12791 161.28469 253.78125 160.80469 C 253.43458 160.29802 252.96753 159.9112 252.38086 159.64453 C 251.79419 159.3512 251.06164 159.20508 250.18164 159.20508 C 249.32831 159.20508 248.60815 159.32445 248.02148 159.56445 C 247.43482 159.80445 246.95341 160.15214 246.58008 160.60547 L 246.58008 156.04492 C 247.16674 155.59159 247.84776 155.21912 248.62109 154.92578 C 249.42109 154.63245 250.40674 154.48633 251.58008 154.48633 z M 287.65625 154.48633 L 287.65625 158.52539 C 286.90958 158.57873 286.3499 158.81944 285.97656 159.24609 C 285.6299 159.67276 285.45508 160.12547 285.45508 160.60547 C 285.45508 161.1388 285.66904 161.57912 286.0957 161.92578 C 286.52237 162.24578 287.04292 162.53802 287.65625 162.80469 L 287.65625 167.32617 C 286.74958 167.03284 285.86896 166.72625 285.01562 166.40625 C 284.16229 166.08625 283.38865 165.71182 282.69531 165.28516 C 282.02865 164.83182 281.48331 164.28453 281.05664 163.64453 C 280.65664 162.97786 280.45508 162.15268 280.45508 161.16602 C 280.45508 160.17935 280.64229 159.28633 281.01562 158.48633 C 281.41563 157.65966 281.93617 156.9519 282.57617 156.36523 C 283.24284 155.77857 284.00213 155.32586 284.85547 155.00586 C 285.73547 154.68586 286.66958 154.513 287.65625 154.48633 z M 288.85547 154.48633 C 289.3888 154.53967 289.93609 154.64469 290.49609 154.80469 C 291.05609 154.93803 291.60143 155.15199 292.13477 155.44531 C 292.6681 155.71198 293.1619 156.07206 293.61523 156.52539 C 294.06857 156.95206 294.45539 157.47261 294.77539 158.08594 L 294.77539 158.16602 C 294.93539 158.53935 295.01562 158.88508 295.01562 159.20508 C 295.01562 159.89841 294.77492 160.47245 294.29492 160.92578 C 293.84159 161.37912 293.29625 161.60547 292.65625 161.60547 C 292.44291 161.60547 292.20221 161.56633 291.93555 161.48633 C 291.66888 161.40633 291.41578 161.285 291.17578 161.125 C 290.96244 160.965 290.77523 160.77779 290.61523 160.56445 C 290.45523 160.35111 290.375 160.12476 290.375 159.88477 C 290.24166 159.59143 290.0564 159.33833 289.81641 159.125 C 289.60306 158.885 289.28213 158.71213 288.85547 158.60547 L 288.85547 154.48633 z M 226.1543 154.56445 L 226.1543 159.28516 C 225.3543 159.36516 224.6074 159.57911 223.91406 159.92578 C 223.2474 160.27245 222.66097 160.72516 222.1543 161.28516 C 221.64763 161.84516 221.24841 162.49943 220.95508 163.24609 C 220.66175 163.99276 220.51367 164.80555 220.51367 165.68555 C 220.51367 166.56555 220.66175 167.37833 220.95508 168.125 C 221.24841 168.87167 221.64763 169.52594 222.1543 170.08594 C 222.66097 170.64594 223.2474 171.09864 223.91406 171.44531 C 224.6074 171.79198 225.3543 172.00594 226.1543 172.08594 L 226.1543 176.80469 C 224.42096 176.72469 222.88802 176.35221 221.55469 175.68555 C 220.24802 175.01888 219.14104 174.165 218.23438 173.125 C 217.32771 172.085 216.64864 170.92453 216.19531 169.64453 C 215.74198 168.33786 215.51367 167.01888 215.51367 165.68555 C 215.51367 164.37888 215.74198 163.08469 216.19531 161.80469 C 216.64864 160.49802 217.32771 159.32516 218.23438 158.28516 C 219.14104 157.24516 220.24802 156.39128 221.55469 155.72461 C 222.88802 155.03128 224.42096 154.64445 226.1543 154.56445 z M 227.35352 154.56445 C 229.08685 154.64445 230.60739 155.03128 231.91406 155.72461 C 233.24739 156.39128 234.36872 157.24516 235.27539 158.28516 C 236.18206 159.32516 236.86112 160.49802 237.31445 161.80469 C 237.76778 163.08469 237.99414 164.37888 237.99414 165.68555 C 237.99414 167.01888 237.76778 168.33786 237.31445 169.64453 C 236.86112 170.92453 236.18206 172.085 235.27539 173.125 C 234.36872 174.165 233.24739 175.01888 231.91406 175.68555 C 230.60739 176.35221 229.08685 176.72469 227.35352 176.80469 L 227.35352 172.08594 C 228.15352 172.00594 228.88802 171.79198 229.55469 171.44531 C 230.24802 171.09864 230.83445 170.64594 231.31445 170.08594 C 231.82112 169.52594 232.22034 168.87167 232.51367 168.125 C 232.807 167.37833 232.95508 166.56555 232.95508 165.68555 C 232.95508 164.80555 232.807 163.99276 232.51367 163.24609 C 232.22034 162.49943 231.82112 161.84516 231.31445 161.28516 C 230.83445 160.72516 230.24802 160.27245 229.55469 159.92578 C 228.88802 159.57911 228.15352 159.36516 227.35352 159.28516 L 227.35352 154.56445 z M 206.42969 160.16602 L 211.42969 160.16602 L 211.42969 174.32617 C 211.42969 174.56617 211.41728 174.73904 211.39062 174.8457 L 211.34961 174.96484 L 211.34961 175.04492 L 211.31055 175.125 L 211.26953 175.20508 L 211.26953 175.24609 L 211.23047 175.32617 C 211.09713 175.61951 210.90991 175.885 210.66992 176.125 C 210.42992 176.33834 210.16443 176.51121 209.87109 176.64453 C 209.57776 176.75119 209.26922 176.80469 208.94922 176.80469 C 208.60255 176.80469 208.28357 176.75119 207.99023 176.64453 C 207.6969 176.51119 207.4438 176.33832 207.23047 176.125 C 206.69713 175.645 206.42969 175.04617 206.42969 174.32617 L 206.42969 160.16602 z M 299.86719 160.16602 L 304.86719 160.16602 L 304.86719 174.32617 C 304.86719 174.56617 304.85478 174.73904 304.82812 174.8457 L 304.78711 174.96484 L 304.78711 175.04492 L 304.74805 175.125 L 304.70703 175.20508 L 304.70703 175.24609 L 304.66797 175.32617 C 304.53463 175.61951 304.34741 175.885 304.10742 176.125 C 303.86742 176.33834 303.60193 176.51121 303.30859 176.64453 C 303.01526 176.75119 302.70672 176.80469 302.38672 176.80469 C 302.04005 176.80469 301.72107 176.75119 301.42773 176.64453 C 301.1344 176.51119 300.8813 176.33832 300.66797 176.125 C 300.13463 175.645 299.86719 175.04617 299.86719 174.32617 L 299.86719 160.16602 z M 288.85547 163.20508 L 289.05664 163.28516 C 289.88331 163.4985 290.70849 163.7516 291.53516 164.04492 C 292.38849 164.31159 293.14974 164.68602 293.81641 165.16602 C 294.50974 165.61935 295.05508 166.21818 295.45508 166.96484 C 295.88174 167.68484 296.0957 168.61896 296.0957 169.76562 C 296.0957 170.77896 295.90849 171.69872 295.53516 172.52539 C 295.16182 173.35206 294.64323 174.07221 293.97656 174.68555 C 293.3099 175.27221 292.53625 175.75167 291.65625 176.125 C 290.77625 176.47167 289.84214 176.68562 288.85547 176.76562 L 288.85547 172.64453 C 289.49547 172.51119 290.01602 172.2457 290.41602 171.8457 C 290.84268 171.41904 291.05664 170.89849 291.05664 170.28516 C 291.05664 169.67182 290.88182 169.19237 290.53516 168.8457 C 290.18849 168.49904 289.6288 168.15136 288.85547 167.80469 L 288.85547 163.20508 z M 282.85547 168.92578 C 283.3088 168.92578 283.72237 169.04516 284.0957 169.28516 C 284.4957 169.4985 284.80229 169.80509 285.01562 170.20508 L 285.0957 170.32617 C 285.12236 170.37951 285.1615 170.48453 285.21484 170.64453 L 285.21484 170.72461 C 285.42819 171.39128 285.77587 171.87268 286.25586 172.16602 C 286.73586 172.43268 287.20292 172.60555 287.65625 172.68555 L 287.65625 176.76562 C 287.01625 176.73897 286.34958 176.64633 285.65625 176.48633 C 284.96292 176.29967 284.29625 176.03222 283.65625 175.68555 C 283.01625 175.33888 282.42982 174.89857 281.89648 174.36523 C 281.36315 173.8319 280.93523 173.17958 280.61523 172.40625 C 280.56189 172.19291 280.52275 172.01809 280.49609 171.88477 C 280.44275 171.72477 280.41602 171.5519 280.41602 171.36523 C 280.41602 170.69857 280.64237 170.12453 281.0957 169.64453 C 281.5757 169.16453 282.16214 168.92578 282.85547 168.92578 z M 198.14453 169.00586 C 198.78453 169.00586 199.35857 169.25896 199.86523 169.76562 C 200.39857 170.24563 200.66602 170.83206 200.66602 171.52539 C 200.66602 172.21872 200.37182 172.88539 199.78516 173.52539 C 199.19849 174.16539 198.46594 174.72508 197.58594 175.20508 C 196.70594 175.68508 195.74508 176.0719 194.70508 176.36523 C 193.66508 176.65857 192.69182 176.80469 191.78516 176.80469 L 191.78516 172.48633 C 192.77182 172.43299 193.61135 172.20468 194.30469 171.80469 C 194.99802 171.37802 195.57206 170.83268 196.02539 170.16602 L 196.10547 170.08594 C 196.31881 169.79261 196.59865 169.53951 196.94531 169.32617 C 197.31864 169.11283 197.71786 169.00586 198.14453 169.00586 z M 158.40625 197.97266 C 159.07292 197.97266 159.6326 198.21336 160.08594 198.69336 C 160.56594 199.14669 160.83143 199.70638 160.88477 200.37305 L 160.88477 225.25391 C 160.85811 225.94724 160.60501 226.51932 160.125 226.97266 C 159.645 227.42599 159.07292 227.65234 158.40625 227.65234 C 157.71292 227.65234 157.12648 227.42599 156.64648 226.97266 C 156.16648 226.51932 155.91143 225.94724 155.88477 225.25391 L 155.88477 200.37305 C 155.93811 199.70638 156.19316 199.14669 156.64648 198.69336 C 157.12648 198.21336 157.71292 197.97266 158.40625 197.97266 z M 189.7793 198.01367 C 190.4193 198.01367 190.97898 198.22568 191.45898 198.65234 C 192.01898 199.15901 192.29883 199.78654 192.29883 200.5332 L 192.29883 225.21289 C 192.29883 225.85289 192.04573 226.42693 191.53906 226.93359 C 191.05906 227.41359 190.47263 227.65234 189.7793 227.65234 C 189.1393 227.65234 188.56526 227.42599 188.05859 226.97266 C 187.57859 226.51932 187.3131 225.93289 187.25977 225.21289 L 187.25977 200.45312 C 187.31311 199.75979 187.56621 199.18576 188.01953 198.73242 C 188.49953 198.25242 189.08596 198.01367 189.7793 198.01367 z M 199.29883 205.33398 C 200.52549 205.33398 201.7662 205.56034 203.01953 206.01367 C 204.27287 206.467 205.39224 207.16042 206.37891 208.09375 C 207.39224 209.00042 208.20698 210.14653 208.82031 211.5332 C 209.46031 212.91987 209.7793 214.53305 209.7793 216.37305 C 209.7793 218.15971 209.48706 219.76049 208.90039 221.17383 C 208.34039 222.56049 207.56674 223.73336 206.58008 224.69336 C 205.59341 225.65336 204.44534 226.38591 203.13867 226.89258 C 201.85867 227.39924 200.49859 227.65234 199.05859 227.65234 C 197.91193 227.65234 196.86039 227.47948 195.90039 227.13281 C 194.96706 226.75948 194.16667 226.28003 193.5 225.69336 L 193.5 220.69336 C 194.03333 221.38669 194.71239 221.94638 195.53906 222.37305 C 196.36573 222.77305 197.29984 222.97266 198.33984 222.97266 C 199.35318 222.97266 200.25859 222.78544 201.05859 222.41211 C 201.85859 222.03878 202.52526 221.54693 203.05859 220.93359 C 203.61859 220.32026 204.04651 219.62685 204.33984 218.85352 C 204.63318 218.08018 204.7793 217.27979 204.7793 216.45312 C 204.7793 215.57313 204.61883 214.74599 204.29883 213.97266 C 203.97883 213.19932 203.53852 212.52026 202.97852 211.93359 C 202.41852 211.32026 201.75185 210.83885 200.97852 210.49219 C 200.20518 210.14552 199.36565 209.97266 198.45898 209.97266 C 197.36565 209.97266 196.39239 210.19901 195.53906 210.65234 C 194.71239 211.07901 194.03333 211.64065 193.5 212.33398 L 193.5 207.37305 C 194.46 206.57305 195.4724 206.0401 196.53906 205.77344 C 197.60573 205.4801 198.52549 205.33398 199.29883 205.33398 z M 172.69531 205.37305 L 172.69531 209.65234 C 171.86864 209.73234 171.13414 209.93391 170.49414 210.25391 C 169.85414 210.54724 169.30685 210.91972 168.85352 211.37305 C 168.42685 211.82638 168.08112 212.32018 167.81445 212.85352 C 167.57445 213.38685 167.42833 213.89305 167.375 214.37305 L 172.69531 214.37305 L 172.69531 218.17383 L 167.29492 218.17383 C 167.34826 218.94716 167.53353 219.65297 167.85352 220.29297 C 168.17352 220.9063 168.58708 221.43924 169.09375 221.89258 C 169.60042 222.31924 170.16206 222.66693 170.77539 222.93359 C 171.38872 223.17359 172.02864 223.31972 172.69531 223.37305 L 172.69531 227.69336 C 171.17531 227.61336 169.77414 227.25328 168.49414 226.61328 C 167.21414 225.97328 166.10716 225.14614 165.17383 224.13281 C 164.26716 223.09281 163.54701 221.93234 163.01367 220.65234 C 162.50701 219.34568 162.25391 217.9856 162.25391 216.57227 C 162.25391 215.13227 162.50701 213.75979 163.01367 212.45312 C 163.54701 211.11979 164.28151 209.94693 165.21484 208.93359 C 166.14818 207.92026 167.24081 207.09313 168.49414 206.45312 C 169.77414 205.81312 171.17531 205.45305 172.69531 205.37305 z M 173.89453 205.37305 C 175.3612 205.45305 176.72128 205.79878 177.97461 206.41211 C 179.25461 207.02544 180.36159 207.81344 181.29492 208.77344 C 182.22826 209.73344 182.96081 210.82607 183.49414 212.05273 C 184.02747 213.25273 184.29492 214.49344 184.29492 215.77344 C 184.24158 216.4401 183.97413 217.01219 183.49414 217.49219 C 183.04081 217.94552 182.46872 218.17383 181.77539 218.17383 L 173.89453 218.17383 L 173.89453 214.37305 L 179.29492 214.37305 C 179.24158 213.89305 179.08111 213.38685 178.81445 212.85352 C 178.57445 212.32018 178.22872 211.82638 177.77539 211.37305 C 177.32206 210.91972 176.76042 210.53289 176.09375 210.21289 C 175.45375 209.86622 174.7212 209.66661 173.89453 209.61328 L 173.89453 205.37305 z M 221.67969 205.37305 L 221.67969 209.65234 C 220.85302 209.73234 220.11852 209.93391 219.47852 210.25391 C 218.83852 210.54724 218.29122 210.91972 217.83789 211.37305 C 217.41122 211.82638 217.0655 212.32018 216.79883 212.85352 C 216.55883 213.38685 216.41271 213.89305 216.35938 214.37305 L 221.67969 214.37305 L 221.67969 218.17383 L 216.2793 218.17383 C 216.33264 218.94716 216.5179 219.65297 216.83789 220.29297 C 217.15789 220.9063 217.57146 221.43924 218.07812 221.89258 C 218.58479 222.31924 219.14643 222.66693 219.75977 222.93359 C 220.3731 223.17359 221.01302 223.31972 221.67969 223.37305 L 221.67969 227.69336 C 220.15969 227.61336 218.75852 227.25328 217.47852 226.61328 C 216.19852 225.97328 215.09154 225.14614 214.1582 224.13281 C 213.25154 223.09281 212.53138 221.93234 211.99805 220.65234 C 211.49138 219.34568 211.23828 217.9856 211.23828 216.57227 C 211.23828 215.13227 211.49138 213.75979 211.99805 212.45312 C 212.53138 211.11979 213.26588 209.94693 214.19922 208.93359 C 215.13255 207.92026 216.22518 207.09313 217.47852 206.45312 C 218.75852 205.81312 220.15969 205.45305 221.67969 205.37305 z M 222.87891 205.37305 C 224.34557 205.45305 225.70565 205.79878 226.95898 206.41211 C 228.23898 207.02544 229.34596 207.81344 230.2793 208.77344 C 231.21263 209.73344 231.94518 210.82607 232.47852 212.05273 C 233.01185 213.25273 233.2793 214.49344 233.2793 215.77344 C 233.22596 216.4401 232.95851 217.01219 232.47852 217.49219 C 232.02518 217.94552 231.4531 218.17383 230.75977 218.17383 L 222.87891 218.17383 L 222.87891 214.37305 L 228.2793 214.37305 C 228.22596 213.89305 228.06549 213.38685 227.79883 212.85352 C 227.55883 212.32018 227.2131 211.82638 226.75977 211.37305 C 226.30643 210.91972 225.74479 210.53289 225.07812 210.21289 C 224.43812 209.86622 223.70557 209.66661 222.87891 209.61328 L 222.87891 205.37305 z M 238.60352 205.37305 C 239.27018 205.37305 239.84422 205.61375 240.32422 206.09375 C 240.83088 206.54708 241.08398 207.09242 241.08398 207.73242 L 241.08398 225.09375 L 241.08398 225.25391 C 241.05733 225.94724 240.80423 226.53367 240.32422 227.01367 C 239.84422 227.467 239.25779 227.69336 238.56445 227.69336 C 237.89779 227.69336 237.32375 227.467 236.84375 227.01367 C 236.36375 226.53367 236.11065 225.95964 236.08398 225.29297 L 236.08398 207.73242 C 236.13733 207.06576 236.39043 206.50607 236.84375 206.05273 C 237.32375 205.5994 237.91018 205.37305 238.60352 205.37305 z M 247.2832 205.37305 C 248.98987 205.37305 250.37669 205.66724 251.44336 206.25391 C 252.51003 206.84057 253.33716 207.58552 253.92383 208.49219 C 254.53716 209.39886 254.93638 210.38646 255.12305 211.45312 C 255.33639 212.49313 255.44336 213.46638 255.44336 214.37305 L 255.44336 225.21289 C 255.44336 225.90622 255.20461 226.49266 254.72461 226.97266 C 254.24461 227.45266 253.65622 227.69336 252.96289 227.69336 C 252.26956 227.69336 251.67073 227.45266 251.16406 226.97266 C 250.68406 226.49266 250.44336 225.90622 250.44336 225.21289 L 250.44336 215.61328 C 250.44336 214.83995 250.36312 214.11979 250.20312 213.45312 C 250.06978 212.75979 249.83103 212.17336 249.48438 211.69336 C 249.13771 211.18669 248.67065 210.79987 248.08398 210.5332 C 247.49732 210.23987 246.76477 210.09375 245.88477 210.09375 C 245.03143 210.09375 244.31128 210.21313 243.72461 210.45312 C 243.13794 210.69313 242.65654 211.03886 242.2832 211.49219 L 242.2832 206.93359 C 242.86987 206.48026 243.55089 206.10583 244.32422 205.8125 C 245.12422 205.51917 246.10987 205.37305 247.2832 205.37305 z M 180.25391 219.89258 C 180.89391 219.89258 181.46794 220.14568 181.97461 220.65234 C 182.50794 221.13234 182.77539 221.71878 182.77539 222.41211 C 182.77539 223.10544 182.4812 223.77211 181.89453 224.41211 C 181.30787 225.05211 180.57531 225.61375 179.69531 226.09375 C 178.81531 226.57375 177.85445 226.96057 176.81445 227.25391 C 175.77445 227.54724 174.8012 227.69336 173.89453 227.69336 L 173.89453 223.37305 C 174.8812 223.31971 175.72073 223.09335 176.41406 222.69336 C 177.10739 222.26669 177.68143 221.7194 178.13477 221.05273 L 178.21484 220.97266 C 178.42819 220.67932 178.70803 220.42622 179.05469 220.21289 C 179.42802 219.99955 179.82724 219.89258 180.25391 219.89258 z M 229.23828 219.89258 C 229.87828 219.89258 230.45232 220.14568 230.95898 220.65234 C 231.49232 221.13234 231.75977 221.71878 231.75977 222.41211 C 231.75977 223.10544 231.46557 223.77211 230.87891 224.41211 C 230.29224 225.05211 229.55969 225.61375 228.67969 226.09375 C 227.79969 226.57375 226.83883 226.96057 225.79883 227.25391 C 224.75883 227.54724 223.78557 227.69336 222.87891 227.69336 L 222.87891 223.37305 C 223.86557 223.31971 224.7051 223.09335 225.39844 222.69336 C 226.09177 222.26669 226.66581 221.7194 227.11914 221.05273 L 227.19922 220.97266 C 227.41256 220.67932 227.6924 220.42622 228.03906 220.21289 C 228.4124 219.99955 228.81162 219.89258 229.23828 219.89258 z M 260.33594 222.41211 C 261.05594 222.41211 261.66911 222.67956 262.17578 223.21289 C 262.70911 223.71956 262.97656 224.33273 262.97656 225.05273 C 262.97656 225.77273 262.70911 226.40026 262.17578 226.93359 C 261.66911 227.44026 261.05594 227.69336 260.33594 227.69336 C 259.61594 227.69336 259.00276 227.44026 258.49609 226.93359 C 257.98943 226.40026 257.73633 225.77273 257.73633 225.05273 C 257.73633 224.33273 257.98943 223.71956 258.49609 223.21289 C 259.00276 222.67956 259.61594 222.41211 260.33594 222.41211 z "
       transform="scale(0.26458333)"
       id="rect46" />
    <g
       aria-label="Beton ist
Leben."
       style="font-style:normal;font-variant:normal;font-weight:normal;font-stretch:normal;font-size:10.58333302px;line-height:125%;font-family:'Arial Black';-inkscape-font-specification:'Arial Black, ';letter-spacing:0px;word-spacing:0px;fill:#000000;fill-opacity:1;stroke:none;stroke-width:0.26458332px;stroke-linecap:butt;stroke-linejoin:miter;stroke-opacity:1"
       id="text12" />
  </g>
</svg>
