<?xml version="1.0" encoding="UTF-8" standalone="no"?>
<!-- Created with Inkscape (http://www.inkscape.org/) -->

<svg
   xmlns:dc="http://purl.org/dc/elements/1.1/"
   xmlns:cc="http://creativecommons.org/ns#"
   xmlns:rdf="http://www.w3.org/1999/02/22-rdf-syntax-ns#"
   xmlns:svg="http://www.w3.org/2000/svg"
   xmlns="http://www.w3.org/2000/svg"
   xmlns:sodipodi="http://sodipodi.sourceforge.net/DTD/sodipodi-0.dtd"
   xmlns:inkscape="http://www.inkscape.org/namespaces/inkscape"
   version="1.1"
   id="svg2374"
   xml:space="preserve"
   width="703.09332"
   height="449.78668"
   viewBox="0 0 703.09332 449.78668"
   sodipodi:docname="BK_Logo.svg"
   inkscape:version="0.92.3 (2405546, 2018-03-11)"><metadata
     id="metadata2380"><rdf:RDF><cc:Work
         rdf:about=""><dc:format>image/svg+xml</dc:format><dc:type
           rdf:resource="http://purl.org/dc/dcmitype/StillImage" /><dc:title></dc:title></cc:Work></rdf:RDF></metadata><defs
     id="defs2378"><inkscape:perspective
       sodipodi:type="inkscape:persp3d"
       inkscape:vp_x="0 : 224.89334 : 1"
       inkscape:vp_y="0 : 1000 : 0"
       inkscape:vp_z="703.09332 : 224.89334 : 1"
       inkscape:persp3d-origin="351.54666 : 149.92889 : 1"
       id="perspective2512" /></defs><sodipodi:namedview
     pagecolor="#ffffff"
     bordercolor="#666666"
     borderopacity="1"
     objecttolerance="10"
     gridtolerance="10"
     guidetolerance="10"
     inkscape:pageopacity="0"
     inkscape:pageshadow="2"
     inkscape:window-width="1920"
     inkscape:window-height="971"
     id="namedview2376"
     showgrid="false"
     inkscape:zoom="1.2671075"
     inkscape:cx="307.07468"
     inkscape:cy="168.06784"
     inkscape:window-x="0"
     inkscape:window-y="31"
     inkscape:window-maximized="1"
     inkscape:current-layer="g2382" /><g
     id="g2382"
     inkscape:groupmode="layer"
     inkscape:label="ink_ext_XXXXXX"
     transform="matrix(1.3333333,0,0,-1.3333333,0,449.78667)"><path
       style="stroke-width:1"
       d="m -29.621094,-17.052734 v 2.001953 50.929687 443.107424 H 5.5234375 v -0.36719 H 717.80273 c 19.76042,-0.93483 42.68887,-0.42187 63.50391,-0.42187 V -16.630859 h -9.20508 c -6.8e-4,-0.0085 -0.001,-0.01693 -0.002,-0.02539 -255.52539,-0.124939 -511.05078,-0.251131 -766.5761725,-0.378906 v -0.01758 z M 250.38281,44.417969 c 4.27084,0.52604 8.54168,1.052085 12.8125,1.578125 36.60877,4.618533 73.16282,10.070983 109.8125,14.724609 27.87332,30.089213 54.41882,61.345957 80.38867,93.080077 33.88543,39.83363 67.73063,79.70429 102.07227,119.14649 42.25028,4.6161 84.48817,9.36176 126.76758,13.69921 -1.39162,4.0535 3.21704,14.67438 -3.17188,13.25782 -43.3278,-4.0988 -86.66559,-8.4472 -129.98828,-12.74024 C 489.09008,216.48017 429.10734,145.79343 369.11914,75.111328 329.04669,69.621715 288.97332,64.138557 248.90039,58.652344 172.65102,99.632783 96.401697,140.61328 20.152344,181.59375 20.738765,175.33548 18.982138,167.70895 21.023438,162.30078 81.843189,129.47605 142.97041,97.160235 205.07812,66.849609 220.168,59.349316 235.27469,51.881822 250.38281,44.417969 Z m -0.81445,39.685547 c 1.44923,0.20508 2.89844,0.410167 4.34766,0.615234 35.79686,5.158853 71.60238,10.367154 107.40234,15.55859 57.69278,73.26816 115.3849,146.53687 173.07812,219.80469 49.2782,5.6746 98.55094,11.41045 147.83985,16.98242 v 26.53711 C 647.823,377.01529 613.45036,390.53326 578.99609,403.84375 519.56446,398.2526 460.13281,392.66146 400.70117,387.07031 359.79152,339.01445 318.88307,290.95757 277.97266,242.90234 219.03163,236.93188 160.02162,230.4159 101.12305,224.79102 74.0819,234.6342 47.040862,244.48278 20.152344,254.73242 V 209.68555 C 96.869675,168.27983 173.30028,126.29539 249.56836,84.103516 Z"
       transform="matrix(0.75000002,0,0,-0.75000002,0,337.34001)"
       id="rect2460"
       inkscape:connector-curvature="0"
       sodipodi:nodetypes="ccccccccccccccccccccccccccccccccccccccccc" /></g></svg>