<?xml version="1.0" encoding="UTF-8" standalone="no"?>
<!-- Created with Inkscape (http://www.inkscape.org/) -->

<svg
   xmlns:dc="http://purl.org/dc/elements/1.1/"
   xmlns:cc="http://creativecommons.org/ns#"
   xmlns:rdf="http://www.w3.org/1999/02/22-rdf-syntax-ns#"
   xmlns:svg="http://www.w3.org/2000/svg"
   xmlns="http://www.w3.org/2000/svg"
   xmlns:sodipodi="http://sodipodi.sourceforge.net/DTD/sodipodi-0.dtd"
   xmlns:inkscape="http://www.inkscape.org/namespaces/inkscape"
   width="210mm"
   height="297mm"
   viewBox="0 0 210 297"
   version="1.1"
   id="svg8"
   inkscape:version="0.92.3 (2405546, 2018-03-11)"
   sodipodi:docname="BK_Schrift.svg">
  <defs
     id="defs2" />
  <sodipodi:namedview
     id="base"
     pagecolor="#ffffff"
     bordercolor="#666666"
     borderopacity="1.0"
     inkscape:pageopacity="0.0"
     inkscape:pageshadow="2"
     inkscape:zoom="1.4"
     inkscape:cx="525.88482"
     inkscape:cy="858.0688"
     inkscape:document-units="mm"
     inkscape:current-layer="layer1"
     showgrid="false"
     inkscape:window-width="1920"
     inkscape:window-height="971"
     inkscape:window-x="0"
     inkscape:window-y="31"
     inkscape:window-maximized="1" />
  <metadata
     id="metadata5">
    <rdf:RDF>
      <cc:Work
         rdf:about="">
        <dc:format>image/svg+xml</dc:format>
        <dc:type
           rdf:resource="http://purl.org/dc/dcmitype/StillImage" />
        <dc:title></dc:title>
      </cc:Work>
    </rdf:RDF>
  </metadata>
  <g
     inkscape:label="Ebene 1"
     inkscape:groupmode="layer"
     id="layer1">
    <rect
       id="rect44"
       width="113.01488"
       height="36.285713"
       x="109.23512"
       y="31.093748"
       style="stroke-width:0.26458332" />
    <g
       id="g64">
      <g
         id="text12"
         style="font-style:normal;font-variant:normal;font-weight:normal;font-stretch:normal;font-size:10.58333302px;line-height:125%;font-family:'Arial Black';-inkscape-font-specification:'Arial Black, ';letter-spacing:0px;word-spacing:0px;fill:#000000;fill-opacity:1;stroke:none;stroke-width:0.26458332px;stroke-linecap:butt;stroke-linejoin:miter;stroke-opacity:1"
         aria-label="Betonkiste.org">
        <path
           id="path14"
           style="font-style:normal;font-variant:normal;font-weight:normal;font-stretch:normal;font-family:'AG Stencil';-inkscape-font-specification:'AG Stencil';stroke-width:0.26458332px"
           d="m 130.6195,59.620368 q -0.45508,0 -0.83608,-0.137584 -0.37042,-0.148166 -0.635,-0.381 v -1.322916 q 0.21166,0.275166 0.53975,0.4445 0.32808,0.15875 0.74083,0.15875 0.40217,0 0.71967,-0.148167 0.3175,-0.148167 0.52916,-0.391583 0.22225,-0.243417 0.33867,-0.550334 0.11642,-0.306916 0.11642,-0.635 0,-0.34925 -0.127,-0.656166 -0.127,-0.306917 -0.34925,-0.53975 -0.22225,-0.243417 -0.52917,-0.381 -0.30692,-0.137584 -0.66675,-0.137584 -0.43392,0 -0.77258,0.179917 -0.32809,0.169333 -0.53975,0.4445 v -1.312333 q 0.381,-0.3175 0.80433,-0.423334 0.42333,-0.116416 0.73025,-0.116416 0.48683,0 0.98425,0.179916 0.49742,0.179917 0.889,0.550334 0.40217,0.359833 0.64558,0.910166 0.254,0.550334 0.254,1.280584 0,0.709083 -0.23283,1.27 -0.22225,0.550333 -0.61383,0.931333 -0.39159,0.381 -0.91017,0.582083 -0.508,0.201084 -1.0795,0.201084 z m -2.01083,-7.672917 q 0.22225,0.201083 0.22225,0.497417 v 6.529916 q 0,0.254 -0.20109,0.455084 -0.1905,0.1905 -0.46566,0.1905 -0.254,0 -0.45509,-0.179917 -0.1905,-0.179917 -0.21166,-0.465667 v -6.551083 q 0.0212,-0.275167 0.20108,-0.455083 0.1905,-0.1905 0.46567,-0.1905 0.254,0 0.4445,0.169333 z" />
        <path
           id="path16"
           style="font-style:normal;font-variant:normal;font-weight:normal;font-stretch:normal;font-family:'AG Stencil';-inkscape-font-specification:'AG Stencil';stroke-width:0.26458332px"
           d="m 138.04354,57.874118 0.0212,-0.02117 q 0.0847,-0.116417 0.22225,-0.201083 0.14817,-0.08467 0.3175,-0.08467 0.254,0 0.45508,0.201083 0.21167,0.1905 0.21167,0.465667 0,0.275167 -0.23283,0.529167 -0.23284,0.254 -0.58209,0.4445 -0.34925,0.1905 -0.762,0.306916 -0.41275,0.116417 -0.77258,0.116417 v -1.143 q 0.39158,-0.02117 0.66675,-0.179917 0.27517,-0.169333 0.45508,-0.433916 z m -1.43933,1.756833 q -0.60325,-0.03175 -1.11125,-0.28575 -0.508,-0.254 -0.87842,-0.656167 -0.35983,-0.41275 -0.5715,-0.92075 -0.20108,-0.518583 -0.20108,-1.0795 0,-0.5715 0.20108,-1.090083 0.21167,-0.529167 0.58209,-0.931333 0.37041,-0.402167 0.86783,-0.656167 0.508,-0.254 1.11125,-0.28575 v 1.132417 q -0.32808,0.03175 -0.58208,0.15875 -0.254,0.116416 -0.43392,0.296333 -0.16933,0.179917 -0.27517,0.391583 -0.0952,0.211667 -0.11641,0.402167 h 1.40758 v 1.005417 h -1.42875 q 0.0212,0.306916 0.14817,0.560916 0.127,0.243417 0.32808,0.423334 0.20108,0.169333 0.4445,0.275166 0.24342,0.09525 0.508,0.116417 z m 0.3175,-5.9055 q 0.58208,0.03175 1.0795,0.275167 0.508,0.243416 0.87842,0.624416 0.37041,0.381 0.58208,0.867834 0.21167,0.47625 0.21167,0.98425 -0.0212,0.264583 -0.21167,0.455083 -0.17992,0.179917 -0.45508,0.179917 h -2.08492 v -1.005417 h 1.42875 q -0.0212,-0.1905 -0.127,-0.402167 -0.0952,-0.211666 -0.27517,-0.391583 -0.17991,-0.179917 -0.4445,-0.306917 -0.254,-0.137583 -0.58208,-0.15875 z" />
        <path
           id="path18"
           style="font-style:normal;font-variant:normal;font-weight:normal;font-stretch:normal;font-family:'AG Stencil';-inkscape-font-specification:'AG Stencil';stroke-width:0.26458332px"
           d="m 142.11945,55.228284 v 3.7465 q 0,0.09525 -0.0106,0.137584 l -0.0106,0.03175 v 0.02117 l -0.0106,0.02117 -0.0106,0.02117 v 0.01058 l -0.0106,0.02117 q -0.0529,0.116416 -0.14816,0.211666 -0.0953,0.08467 -0.21167,0.137584 -0.11642,0.04233 -0.24342,0.04233 -0.13758,0 -0.254,-0.04233 -0.11641,-0.05292 -0.20108,-0.137584 -0.21167,-0.1905 -0.21167,-0.47625 v -3.7465 z m 0.62442,-0.3175 h -0.62442 -1.32292 -0.58208 q -0.21167,0 -0.33867,-0.127 -0.16933,-0.148166 -0.16933,-0.381 0,-0.232833 0.16933,-0.381 0.0635,-0.0635 0.15875,-0.09525 0.0741,-0.03175 0.16934,-0.03175 h 0.59266 v -1.4605 q 0,-0.0635 0.0212,-0.148166 v -0.03175 l 0.0106,-0.02117 v -0.01058 l 0.0106,-0.02117 0.0106,-0.02117 v -0.01058 q 0.0635,-0.127 0.15875,-0.22225 0.1905,-0.169333 0.45508,-0.169333 0.254,0 0.4445,0.169333 0.0952,0.09525 0.14817,0.211667 0.0635,0.116416 0.0635,0.264583 v 1.471083 h 0.61383 q 0.21167,0 0.33867,0.127 0.17992,0.15875 0.17992,0.381 0,0.22225 -0.17992,0.381 -0.0529,0.04233 -0.10583,0.0635 -0.0529,0.02117 -0.10584,0.04233 -0.0529,0.02117 -0.11641,0.02117 z" />
        <path
           id="path20"
           style="font-style:normal;font-variant:normal;font-weight:normal;font-stretch:normal;font-family:'AG Stencil';-inkscape-font-specification:'AG Stencil';stroke-width:0.26458332px"
           d="m 146.33277,58.382118 q 0.3175,-0.03175 0.58209,-0.169334 0.27516,-0.137583 0.46566,-0.359833 0.20109,-0.22225 0.3175,-0.518583 0.11642,-0.296334 0.11642,-0.645584 0,-0.34925 -0.11642,-0.645583 -0.11641,-0.296333 -0.3175,-0.518583 -0.1905,-0.22225 -0.46566,-0.359834 -0.26459,-0.137583 -0.58209,-0.169333 v -1.248833 q 0.68792,0.03175 1.2065,0.306916 0.52917,0.264584 0.889,0.677334 0.35984,0.41275 0.53975,0.931333 0.17992,0.508 0.17992,1.026583 0,0.529167 -0.17992,1.04775 -0.17991,0.508 -0.53975,0.92075 -0.35983,0.41275 -0.889,0.677334 -0.51858,0.264583 -1.2065,0.296333 z m -1.80975,-1.693334 q 0,0.34925 0.11642,0.645584 0.11642,0.296333 0.3175,0.518583 0.20108,0.22225 0.46567,0.359833 0.27516,0.137584 0.59266,0.169334 v 1.248833 q -0.68791,-0.03175 -1.21708,-0.296333 -0.51858,-0.264584 -0.87842,-0.677334 -0.35983,-0.41275 -0.53975,-0.92075 -0.17991,-0.518583 -0.17991,-1.04775 0,-0.518583 0.17991,-1.026583 0.17992,-0.518583 0.53975,-0.931333 0.35984,-0.41275 0.87842,-0.677334 0.52917,-0.275166 1.21708,-0.306916 v 1.248833 q -0.3175,0.03175 -0.59266,0.169333 -0.26459,0.137584 -0.46567,0.359834 -0.20108,0.22225 -0.3175,0.518583 -0.11642,0.296333 -0.11642,0.645583 z" />
        <path
           id="path22"
           style="font-style:normal;font-variant:normal;font-weight:normal;font-stretch:normal;font-family:'AG Stencil';-inkscape-font-specification:'AG Stencil';stroke-width:0.26458332px"
           d="m 151.10222,54.349868 v 4.593166 0.04233 q -0.0106,0.275166 -0.20108,0.465666 -0.1905,0.179917 -0.46567,0.179917 -0.26458,0 -0.45508,-0.179917 -0.1905,-0.1905 -0.20109,-0.455083 v -4.646083 q 0.0212,-0.264584 0.20109,-0.4445 0.1905,-0.179917 0.46566,-0.179917 0.26459,0 0.45509,0.1905 0.20108,0.179917 0.20108,0.433917 z m 1.27,0.624416 q -0.33867,0 -0.5715,0.09525 -0.23283,0.09525 -0.381,0.275167 v -1.2065 q 0.23283,-0.179917 0.53975,-0.296333 0.3175,-0.116417 0.78317,-0.116417 0.67733,0 1.10066,0.232833 0.42334,0.232834 0.65617,0.592667 0.24342,0.359833 0.3175,0.783167 0.0847,0.41275 0.0847,0.772583 v 2.868083 q 0,0.275167 -0.1905,0.465667 -0.1905,0.1905 -0.46567,0.1905 -0.27517,0 -0.47625,-0.1905 -0.1905,-0.1905 -0.1905,-0.465667 v -2.54 q 0,-0.306916 -0.0635,-0.5715 -0.0529,-0.275166 -0.1905,-0.465666 -0.13758,-0.201084 -0.37042,-0.306917 -0.23283,-0.116417 -0.58208,-0.116417 z" />
        <path
           id="path24"
           style="font-style:normal;font-variant:normal;font-weight:normal;font-stretch:normal;font-family:'AG Stencil';-inkscape-font-specification:'AG Stencil';stroke-width:0.26458332px"
           d="m 156.85228,51.936868 q 0.20108,0.1905 0.22225,0.47625 v 6.57225 q -0.0106,0.275166 -0.20109,0.455083 -0.1905,0.179917 -0.46566,0.179917 -0.27517,0 -0.46567,-0.1905 -0.1905,-0.1905 -0.1905,-0.465667 v -6.519333 q 0,-0.275167 0.1905,-0.465667 0.1905,-0.201083 0.46567,-0.201083 0.254,0 0.4445,0.15875 z m 2.14841,7.408333 -1.60866,-2.233083 v -1.4605 l 1.5875,-1.756834 q 0.0952,-0.105833 0.20108,-0.15875 0.11642,-0.0635 0.26458,-0.0635 0.21167,0 0.381,0.137584 l 0.0212,0.03175 q 0.16933,0.148166 0.16933,0.391583 v 0.04233 q 0,0.137584 -0.0529,0.232834 -0.0529,0.08467 -0.13759,0.179916 l -1.55575,1.651 1.70392,2.275417 q 0.127,0.148167 0.14817,0.381 v 0.04233 q -0.0212,0.243417 -0.20109,0.41275 -0.16933,0.169334 -0.41275,0.169334 -0.127,0 -0.27516,-0.0635 -0.14817,-0.0635 -0.20109,-0.169334 z" />
        <path
           id="path26"
           style="font-style:normal;font-variant:normal;font-weight:normal;font-stretch:normal;font-family:'AG Stencil';-inkscape-font-specification:'AG Stencil';stroke-width:0.26458332px"
           d="m 160.71651,52.106201 q 0.1905,-0.15875 0.43392,-0.15875 0.27517,0 0.46567,0.179917 0.20108,0.179916 0.20108,0.455083 v 0.05292 q -0.0106,0.275166 -0.20108,0.455083 -0.1905,0.179917 -0.46567,0.179917 -0.27517,0 -0.46567,-0.1905 -0.1905,-0.1905 -0.1905,-0.465667 0,-0.306917 0.22225,-0.508 z m 1.10067,2.233083 v 4.646084 q -0.0106,0.275166 -0.20108,0.455083 -0.1905,0.179917 -0.46567,0.179917 -0.26458,0 -0.45508,-0.179917 -0.1905,-0.179917 -0.20109,-0.455083 v -4.646084 q 0.0212,-0.275166 0.21167,-0.4445 0.1905,-0.179916 0.4445,-0.179916 0.26458,0 0.45508,0.179916 0.1905,0.179917 0.21167,0.4445 z" />
        <path
           id="path28"
           style="font-style:normal;font-variant:normal;font-weight:normal;font-stretch:normal;font-family:'AG Stencil';-inkscape-font-specification:'AG Stencil';stroke-width:0.26458332px"
           d="m 164.46533,53.725451 q 0.21167,0.02117 0.43392,0.08467 0.22225,0.05292 0.43391,0.169333 0.21167,0.105833 0.39159,0.28575 0.17991,0.169333 0.30691,0.41275 v 0.02117 q 0.0635,0.148166 0.0635,0.275166 0,0.275167 -0.1905,0.455084 -0.17991,0.179916 -0.43391,0.179916 -0.0847,0 -0.1905,-0.03175 -0.10584,-0.03175 -0.20109,-0.09525 -0.0847,-0.0635 -0.14816,-0.148166 -0.0635,-0.08467 -0.0635,-0.179917 -0.0529,-0.116417 -0.14817,-0.201083 -0.0847,-0.09525 -0.254,-0.137584 z m -0.3175,3.39725 q -0.35983,-0.116417 -0.6985,-0.243417 -0.33867,-0.127 -0.61383,-0.296333 -0.26459,-0.179917 -0.43392,-0.433917 -0.15875,-0.264583 -0.15875,-0.656166 0,-0.391584 0.14817,-0.709084 0.15875,-0.328083 0.41275,-0.560916 0.26458,-0.232834 0.60325,-0.359834 0.34925,-0.127 0.74083,-0.137583 v 1.068917 q -0.29633,0.02117 -0.4445,0.1905 -0.13758,0.169333 -0.13758,0.359833 0,0.211667 0.16933,0.34925 0.16933,0.127 0.41275,0.232833 z m 0.3175,1.407583 q 0.254,-0.05292 0.41275,-0.211666 0.16933,-0.169334 0.16933,-0.41275 0,-0.243417 -0.13758,-0.381 -0.13758,-0.137584 -0.4445,-0.275167 v -1.217083 l 0.0529,0.02117 q 0.32808,0.08467 0.65616,0.201084 0.33867,0.105833 0.60325,0.296333 0.27517,0.179917 0.43392,0.47625 0.16933,0.28575 0.16933,0.740833 0,0.402167 -0.14816,0.73025 -0.14817,0.328084 -0.41275,0.5715 -0.26459,0.232834 -0.61384,0.381 -0.34925,0.137584 -0.74083,0.169334 z m -2.18017,-0.0635 q -0.0212,-0.08467 -0.0317,-0.137583 -0.0212,-0.0635 -0.0212,-0.137583 0,-0.264584 0.17991,-0.455084 0.1905,-0.1905 0.46567,-0.1905 0.17992,0 0.32808,0.09525 0.15875,0.08467 0.24342,0.243417 l 0.0212,0.03175 q 0.0106,0.02117 0.0318,0.08467 v 0.02117 q 0.0847,0.264584 0.27516,0.381 0.1905,0.105834 0.37042,0.137584 v 1.0795 q -0.254,-0.01058 -0.52917,-0.07408 -0.27516,-0.07408 -0.52916,-0.211666 -0.254,-0.137584 -0.46567,-0.34925 -0.21167,-0.211667 -0.33867,-0.518584 z" />
        <path
           id="path30"
           style="font-style:normal;font-variant:normal;font-weight:normal;font-stretch:normal;font-family:'AG Stencil';-inkscape-font-specification:'AG Stencil';stroke-width:0.26458332px"
           d="m 168.7018,55.228284 v 3.7465 q 0,0.09525 -0.0106,0.137584 l -0.0106,0.03175 v 0.02117 l -0.0106,0.02117 -0.0106,0.02117 v 0.01058 l -0.0106,0.02117 q -0.0529,0.116416 -0.14817,0.211666 -0.0952,0.08467 -0.21167,0.137584 -0.11641,0.04233 -0.24341,0.04233 -0.13759,0 -0.254,-0.04233 -0.11642,-0.05292 -0.20109,-0.137584 -0.21166,-0.1905 -0.21166,-0.47625 v -3.7465 z m 0.62442,-0.3175 h -0.62442 -1.32291 -0.58209 q -0.21166,0 -0.33866,-0.127 -0.16934,-0.148166 -0.16934,-0.381 0,-0.232833 0.16934,-0.381 0.0635,-0.0635 0.15875,-0.09525 0.0741,-0.03175 0.16933,-0.03175 h 0.59267 v -1.4605 q 0,-0.0635 0.0212,-0.148166 v -0.03175 l 0.0106,-0.02117 v -0.01058 l 0.0106,-0.02117 0.0106,-0.02117 v -0.01058 q 0.0635,-0.127 0.15875,-0.22225 0.1905,-0.169333 0.45509,-0.169333 0.254,0 0.4445,0.169333 0.0952,0.09525 0.14816,0.211667 0.0635,0.116416 0.0635,0.264583 v 1.471083 h 0.61384 q 0.21166,0 0.33866,0.127 0.17992,0.15875 0.17992,0.381 0,0.22225 -0.17992,0.381 -0.0529,0.04233 -0.10583,0.0635 -0.0529,0.02117 -0.10583,0.04233 -0.0529,0.02117 -0.11642,0.02117 z" />
        <path
           id="path32"
           style="font-style:normal;font-variant:normal;font-weight:normal;font-stretch:normal;font-family:'AG Stencil';-inkscape-font-specification:'AG Stencil';stroke-width:0.26458332px"
           d="m 173.78296,57.874118 0.0212,-0.02117 q 0.0847,-0.116417 0.22225,-0.201083 0.14817,-0.08467 0.3175,-0.08467 0.254,0 0.45508,0.201083 0.21167,0.1905 0.21167,0.465667 0,0.275167 -0.23283,0.529167 -0.23284,0.254 -0.58209,0.4445 -0.34925,0.1905 -0.762,0.306916 -0.41275,0.116417 -0.77258,0.116417 v -1.143 q 0.39158,-0.02117 0.66675,-0.179917 0.27517,-0.169333 0.45508,-0.433916 z m -1.43933,1.756833 q -0.60325,-0.03175 -1.11125,-0.28575 -0.508,-0.254 -0.87842,-0.656167 -0.35983,-0.41275 -0.5715,-0.92075 -0.20108,-0.518583 -0.20108,-1.0795 0,-0.5715 0.20108,-1.090083 0.21167,-0.529167 0.58209,-0.931333 0.37041,-0.402167 0.86783,-0.656167 0.508,-0.254 1.11125,-0.28575 v 1.132417 q -0.32808,0.03175 -0.58208,0.15875 -0.254,0.116416 -0.43392,0.296333 -0.16933,0.179917 -0.27517,0.391583 -0.0952,0.211667 -0.11641,0.402167 h 1.40758 v 1.005417 h -1.42875 q 0.0212,0.306916 0.14817,0.560916 0.127,0.243417 0.32808,0.423334 0.20108,0.169333 0.4445,0.275166 0.24342,0.09525 0.508,0.116417 z m 0.3175,-5.9055 q 0.58208,0.03175 1.0795,0.275167 0.508,0.243416 0.87842,0.624416 0.37041,0.381 0.58208,0.867834 0.21167,0.47625 0.21167,0.98425 -0.0212,0.264583 -0.21167,0.455083 -0.17992,0.179917 -0.45508,0.179917 h -2.08492 v -1.005417 h 1.42875 q -0.0212,-0.1905 -0.127,-0.402167 -0.0953,-0.211666 -0.27517,-0.391583 -0.17991,-0.179917 -0.4445,-0.306917 -0.254,-0.137583 -0.58208,-0.15875 z" />
        <path
           id="path34"
           style="font-style:normal;font-variant:normal;font-weight:normal;font-stretch:normal;font-family:'AG Stencil';-inkscape-font-specification:'AG Stencil';stroke-width:0.26458332px"
           d="m 175.84803,58.932451 q 0,-0.28575 0.20109,-0.486833 0.20108,-0.211667 0.48683,-0.211667 0.28575,0 0.48683,0.211667 0.21167,0.201083 0.21167,0.486833 0,0.28575 -0.21167,0.497417 -0.20108,0.201083 -0.48683,0.201083 -0.28575,0 -0.48683,-0.201083 -0.20109,-0.211667 -0.20109,-0.497417 z" />
        <path
           id="path36"
           style="font-style:normal;font-variant:normal;font-weight:normal;font-stretch:normal;font-family:'AG Stencil';-inkscape-font-specification:'AG Stencil';stroke-width:0.26458332px"
           d="m 180.70793,58.382118 q 0.3175,-0.03175 0.58209,-0.169334 0.27516,-0.137583 0.46566,-0.359833 0.20109,-0.22225 0.3175,-0.518583 0.11642,-0.296334 0.11642,-0.645584 0,-0.34925 -0.11642,-0.645583 -0.11641,-0.296333 -0.3175,-0.518583 -0.1905,-0.22225 -0.46566,-0.359834 -0.26459,-0.137583 -0.58209,-0.169333 v -1.248833 q 0.68792,0.03175 1.2065,0.306916 0.52917,0.264584 0.889,0.677334 0.35984,0.41275 0.53975,0.931333 0.17992,0.508 0.17992,1.026583 0,0.529167 -0.17992,1.04775 -0.17991,0.508 -0.53975,0.92075 -0.35983,0.41275 -0.889,0.677334 -0.51858,0.264583 -1.2065,0.296333 z m -1.80975,-1.693334 q 0,0.34925 0.11642,0.645584 0.11642,0.296333 0.3175,0.518583 0.20108,0.22225 0.46567,0.359833 0.27516,0.137584 0.59266,0.169334 v 1.248833 q -0.68791,-0.03175 -1.21708,-0.296333 -0.51858,-0.264584 -0.87842,-0.677334 -0.35983,-0.41275 -0.53975,-0.92075 -0.17991,-0.518583 -0.17991,-1.04775 0,-0.518583 0.17991,-1.026583 0.17992,-0.518583 0.53975,-0.931333 0.35984,-0.41275 0.87842,-0.677334 0.52917,-0.275166 1.21708,-0.306916 v 1.248833 q -0.3175,0.03175 -0.59266,0.169333 -0.26459,0.137584 -0.46567,0.359834 -0.20108,0.22225 -0.3175,0.518583 -0.11642,0.296333 -0.11642,0.645583 z" />
        <path
           id="path38"
           style="font-style:normal;font-variant:normal;font-weight:normal;font-stretch:normal;font-family:'AG Stencil';-inkscape-font-specification:'AG Stencil';stroke-width:0.26458332px"
           d="m 185.45621,54.349868 -0.0106,4.6355 q -0.0106,0.275166 -0.20108,0.465666 -0.1905,0.179917 -0.45509,0.179917 -0.27516,0 -0.46566,-0.179917 -0.17992,-0.1905 -0.20109,-0.455083 v -4.646083 q 0.0212,-0.243417 0.20109,-0.433917 0.1905,-0.1905 0.46566,-0.1905 0.27517,0 0.45509,0.179917 0.1905,0.169333 0.21166,0.4445 z m 0.3175,-0.243417 q 0.11642,-0.105833 0.27517,-0.179917 0.15875,-0.08467 0.34925,-0.137583 h 0.0212 q 0.0847,-0.02117 0.14816,-0.02117 0.20109,0 0.34925,0.105834 0.14817,0.09525 0.23284,0.243416 l 0.0106,0.02117 q 0.0635,0.127 0.0635,0.28575 0,0.254 -0.16933,0.4445 -0.16934,0.179917 -0.43392,0.201083 -0.56092,0.05292 -0.84667,0.370417 z" />
        <path
           id="path40"
           style="font-style:normal;font-variant:normal;font-weight:normal;font-stretch:normal;font-family:'AG Stencil';-inkscape-font-specification:'AG Stencil';stroke-width:0.26458332px"
           d="m 191.60745,59.080618 q -0.24342,0.243416 -0.61384,0.41275 -0.35983,0.15875 -0.86783,0.15875 -0.60325,0 -1.12183,-0.211667 -0.51859,-0.22225 -0.89959,-0.60325 -0.381,-0.391583 -0.60325,-0.931333 -0.21166,-0.53975 -0.21166,-1.185334 0,-0.677333 0.22225,-1.227666 0.23283,-0.550334 0.61383,-0.931334 0.39158,-0.391583 0.91017,-0.592666 0.51858,-0.211667 1.09008,-0.211667 0.4445,0 0.8255,0.137583 0.381,0.137584 0.65617,0.381 v 1.36525 q -0.1905,-0.28575 -0.52917,-0.465666 -0.32808,-0.179917 -0.79375,-0.179917 -0.33867,0 -0.64558,0.127 -0.29634,0.127 -0.52917,0.34925 -0.22225,0.22225 -0.35983,0.529167 -0.127,0.306916 -0.127,0.677333 0,0.370417 0.11641,0.687917 0.127,0.3175 0.34925,0.550333 0.22225,0.22225 0.52917,0.359833 0.30692,0.127 0.66675,0.127 0.41275,0 0.762,-0.169333 0.34925,-0.169333 0.56092,-0.47625 z m 0.32808,0.04233 v -4.709583 q 0,-0.275167 0.1905,-0.465667 0.20108,-0.201083 0.47625,-0.201083 0.254,0 0.4445,0.1905 0.20108,0.179916 0.22225,0.455083 v 4.423833 q 0,0.687917 -0.127,1.153584 -0.127,0.465666 -0.39158,0.814916 -0.35984,0.47625 -1.02659,0.804334 -0.66675,0.338666 -1.524,0.338666 -0.51858,0 -0.98425,-0.137583 -0.46566,-0.127 -0.8255,-0.34925 -0.34925,-0.22225 -0.56091,-0.508 -0.20109,-0.275167 -0.20109,-0.560917 0,-0.28575 0.20109,-0.508 0.21166,-0.211666 0.51858,-0.211666 0.21167,0 0.33867,0.105833 0.13758,0.116417 0.254,0.264583 0.11641,0.148167 0.254,0.306917 0.13758,0.169333 0.35983,0.275167 0.21167,0.105833 0.40217,0.148166 0.1905,0.04233 0.32808,0.04233 0.29633,0 0.58208,-0.105834 0.29634,-0.105833 0.52917,-0.3175 0.24342,-0.201083 0.39158,-0.518583 0.14817,-0.306917 0.14817,-0.73025 z" />
      </g>
    </g>
  </g>
  <g
     inkscape:groupmode="layer"
     id="layer2"
     inkscape:label="Ebene 2" />
</svg>
