<?xml version="1.0" encoding="UTF-8" standalone="no"?>
<!-- Created with Inkscape (http://www.inkscape.org/) -->

<svg
   xmlns:dc="http://purl.org/dc/elements/1.1/"
   xmlns:cc="http://creativecommons.org/ns#"
   xmlns:rdf="http://www.w3.org/1999/02/22-rdf-syntax-ns#"
   xmlns:svg="http://www.w3.org/2000/svg"
   xmlns="http://www.w3.org/2000/svg"
   xmlns:sodipodi="http://sodipodi.sourceforge.net/DTD/sodipodi-0.dtd"
   xmlns:inkscape="http://www.inkscape.org/namespaces/inkscape"
   version="1.1"
   id="svg29"
   xml:space="preserve"
   width="395.45334"
   height="358.62668"
   viewBox="0 0 395.45334 358.62668"
   sodipodi:docname="BK_Schablone.svg"
   inkscape:version="0.92.3 (2405546, 2018-03-11)"><metadata
     id="metadata35"><rdf:RDF><cc:Work
         rdf:about=""><dc:format>image/svg+xml</dc:format><dc:type
           rdf:resource="http://purl.org/dc/dcmitype/StillImage" /><dc:title /></cc:Work></rdf:RDF></metadata><defs
     id="defs33" /><sodipodi:namedview
     pagecolor="#ffffff"
     bordercolor="#666666"
     borderopacity="1"
     objecttolerance="10"
     gridtolerance="10"
     guidetolerance="10"
     inkscape:pageopacity="0"
     inkscape:pageshadow="2"
     inkscape:window-width="1920"
     inkscape:window-height="971"
     id="namedview31"
     showgrid="false"
     inkscape:zoom="2.9580948"
     inkscape:cx="197.72667"
     inkscape:cy="134.82386"
     inkscape:window-x="0"
     inkscape:window-y="31"
     inkscape:window-maximized="1"
     inkscape:current-layer="g39" /><g
     id="g37"
     inkscape:groupmode="layer"
     inkscape:label="ink_ext_XXXXXX"
     transform="matrix(1.3333333,0,0,-1.3333333,0,358.62667)"><g
       id="g39"
       transform="scale(0.1)"><path
   d="m 1894.69,2689.2 c 3.01,-7.38 -6.72,-10.44 -10.3,-13.82 -79.78,-75.8 -157.85,-161.49 -238.77,-239.3 -86.81,-83.32 -175.07,-166.36 -261.02,-246.84 -31.09,-1.86 -60.18,6.79 -88,1.75 13.66,22.12 37.7,41.41 59.21,60.81 21.97,19.79 40.35,43.81 61.33,62.81 3.84,3.46 13.21,1.19 19.99,1.6 5,7.23 3.78,11.91 0.38,20 10.36,4.89 12.28,18.56 28.4,17.43 3.46,3.85 3.66,11.14 6.28,15.88 43.18,36.06 79.84,78.87 128.27,109.5 2.3,7.08 8.69,9.98 10.32,17.77 70.54,62 133.97,131.37 205.88,191.97 22.91,-8.65 48.65,3.55 78.03,0.44"
   style="fill:#040606;fill-opacity:1;fill-rule:evenodd;stroke:none"
   id="path41"
   inkscape:connector-curvature="0" /><path
   d="m 2009.32,2316.8 c -0.1,-5.34 -0.24,-10.66 -0.36,-15.96 -45.21,-36 -73.53,-89.52 -122.42,-121.6 -6.48,-19.11 -18.84,-32.12 -36.77,-39.29 -27.41,-39.56 -68.62,-64.73 -98.09,-102.07 -3.97,-2.64 -11.47,-1.67 -16.07,-3.66 -3.4,-6.51 0.33,-7.7 -0.32,-16.04 -36.15,-33.77 -66.63,-73.54 -100.2,-110.01 -26.79,15.58 -45.72,41.7 -66.77,63.35 -62,63.76 -117.29,137.84 -175.91,207.55 182.85,155.32 345.44,331.79 518.06,497.82 1.7,0.31 1.85,-0.82 1.93,-2.06 43.19,-58.44 100.57,-127.59 154.26,-191.11 14.26,-16.9 49.71,-43.49 48.71,-65 -0.76,-16.44 -31.48,-37.95 -43.03,-49.13 -18.04,-17.57 -31.38,-28.72 -42.93,-47.19 -7.42,-1.09 -12.63,-4.51 -20.09,-5.6"
   style="fill:#040606;fill-opacity:1;fill-rule:evenodd;stroke:none"
   id="path43"
   inkscape:connector-curvature="0" /><path
   d="m 2476.05,2649.59 c 10.08,-15.8 36.74,-15.68 63.72,-15.26 -82.43,-75.03 -169.22,-150.63 -260.63,-230.88 -63.3,-55.5 -125.64,-114.52 -191.58,-176.22 -16.78,-15.7 -47.33,-55.56 -63.18,-58.75 -18.19,-3.68 -39.32,10.16 -55.88,7.13 55.93,54.71 112.46,108.82 175.17,156.54 78.63,80.76 165.59,159.82 252.83,239.02 10.94,9.93 24.54,22.18 40.69,35.22 15.33,12.37 39.06,27.68 38.86,43.2"
   style="fill:#040606;fill-opacity:1;fill-rule:evenodd;stroke:none"
   id="path45"
   inkscape:connector-curvature="0" /><path
   d="m 1289.98,2661.21 c 3.38,-8.76 -8.51,-10.35 -12.28,-13.75 -37.54,-33.49 -75.98,-73.34 -116.17,-107.72 -69.78,-59.65 -144.87,-111.9 -215.483,-171.72 -68.391,-57.98 -146.926,-107.86 -209.504,-173.9 -28.926,-3.35 -62.852,-0.47 -89.961,3.79 12.41,18.17 37.078,29.81 56.914,44.87 19.629,14.94 37.727,35.26 62.813,40.79 44.226,49.89 105.351,82.25 154.589,126.94 4.661,-0.09 9.317,-0.17 13.973,-0.27 3.567,3.07 2.832,10.65 6.262,13.89 32.234,18.82 50.195,52.54 89.337,64.23 61.04,65.69 131.97,121.19 199.66,180.08 20.25,-2.1 39.94,-4.76 59.85,-7.23"
   style="fill:#040606;fill-opacity:1;fill-rule:evenodd;stroke:none"
   id="path47"
   inkscape:connector-curvature="0" /><path
   d="m 28.6523,2210.22 c -5.4101,4.41 8.254,9.36 14.2891,13.73 45.9063,33.26 93.4256,70.99 142.1366,105.19 137.168,96.34 271.524,194.52 419.817,287.72 29.558,18.6 61.46,45.37 89.089,52.25 19.297,4.8 40.684,-2.75 56.094,4.88 1.36,-0.03 2.664,-0.05 4.016,-0.09 -112.676,-69.61 -213.031,-161.3 -330.84,-237.45 -28.418,-18.4 -60.703,-32.97 -91.047,-52.22 -57.977,-36.8 -106.367,-74.7 -164.426,-118.76 -11.211,-8.52 -27.879,-17.97 -42.566,-29.15 -14.082,-10.75 -30.6759,-27.03 -40.6056,-29.21 -17.2735,-3.81 -39.4024,4.78 -55.9571,3.11"
   style="fill:#040606;fill-opacity:1;fill-rule:evenodd;stroke:none"
   id="path49"
   inkscape:connector-curvature="0" /><path
   d="m 1498.57,2487.02 c -7.76,0.54 -14.75,0.38 -20.04,-1.59 -7.15,-5.72 1.13,-12.43 -2.33,-17.97 -10.34,-5.6 -13.84,-18.24 -28.44,-19.42 -4.6,-25.8 -32.26,-31.97 -47,-49.11 -4.21,-4.92 -4.52,-12.57 -8.35,-17.8 -9.05,-12.43 -26.16,-25.58 -38.77,-39.27 -17.6,-19.06 -29.09,-37.72 -50.98,-48.96 -8.83,-14.67 -19.58,-27.26 -34.71,-35.33 -44.89,-46.53 -82.42,-100.71 -136.78,-137.33 -3.12,-6.01 0.47,-7.79 -2.24,-11.95 -62.06,-58.58 -120.4,-120.98 -185.539,-176.36 -70.918,74.43 -129.426,160.73 -191.25,243.89 -0.168,3.33 6.777,12.58 -1.75,12.02 124.121,113.22 289.719,231.34 426.999,345.61 47.77,39.71 89,84.96 134.48,121.36 20.87,16.72 51.11,-27.13 63.16,-41.3 38.2,-44.78 83.11,-85.41 123.54,-126.49"
   style="fill:#040606;fill-opacity:1;fill-rule:evenodd;stroke:none"
   id="path51"
   inkscape:connector-curvature="0" /><path
   d="m 932.551,2492.33 c -1.985,-5.44 -6.211,2.87 -12.004,0.22 -48.176,-34.93 -99.082,-67.02 -138.25,-111.29 -6.274,-0.3 -14.692,1.66 -18.067,-1.62 -5.109,-6.01 -1.859,-8.03 -2.343,-17.96 -33.313,-20.48 -52.414,-55.72 -95.395,-66.12 -5.816,-0.71 -1.797,-11.73 -6.258,-13.91 -4.89,-3.03 -8.691,-7.27 -18.117,-5.63 -10.816,-17.99 -30.625,-26.63 -46.785,-39.07 -46.543,-35.77 -93.019,-77.11 -138.367,-117.28 -30.371,-26.88 -57.617,-57.24 -87.695,-84.25 -30.168,-27.11 -52.676,-60.09 -83.774,-86.39 -64.519,79.89 -125.633,163.01 -189.1757,243.85 52.3787,42.18 105.8357,84.5 162.4297,120.8 28.457,18.19 54.18,40.65 83.215,58.36 28.75,17.51 60.418,31.75 89.004,50.25 56.394,36.39 110.523,78.31 164.422,118.74 56.55,42.43 110.097,84.89 170.468,120.62 55.926,-56.06 103.118,-120.55 166.692,-169.32"
   style="fill:#040606;fill-opacity:1;fill-rule:evenodd;stroke:none"
   id="path53"
   inkscape:connector-curvature="0" /><path
   d="m 2563.34,2611.87 c 1.68,0.35 1.84,-0.83 1.97,-2.04 1.72,0.33 1.82,-0.82 1.96,-2.05 -4.54,-99.86 5.43,-199.09 8.04,-298.23 5.18,-194.71 17.95,-391.22 4.12,-596.23 -6.83,-101.05 -2.01,-201.99 4.05,-300.18 -7.17,-10.22 -17,-17.7 -30.41,-21.4 -13.52,-40.63 -48.19,-74.41 -74.2,-108.56 7.32,159.44 -12.39,292.84 -17.25,440.48 -7.83,3.9 -6.99,24.28 -19.49,26.39 -14.59,2.48 -58.99,-56.65 -67.33,-66.67 -25.46,-30.63 -44.37,-52.79 -55.56,-78.91 14.28,-13.92 52.46,-11.82 81.72,-13.67 15.17,-0.92 32.44,3.25 37.87,-6.73 -32.7,-4.42 -91.12,1.68 -123.83,10.49 -15.96,-14.02 -10.78,-38.66 -11.15,-57.8 -2.85,-145.74 12.52,-305.3 9.04,-450.33 -65.76,-81.96 -130.47,-178.692 -208.93,-243.891 -11.58,442.611 -20.78,887.501 -51.89,1311.391 166.62,156.6 339.12,307.06 511.27,457.94"
   style="fill:#040606;fill-opacity:1;fill-rule:evenodd;stroke:none"
   id="path55"
   inkscape:connector-curvature="0" /><path
   d="m 1556.46,2479.88 c 1.53,4.48 11.23,0.56 16.01,1.69 -1.22,-7.03 -11.66,-2.97 -16.01,-1.69"
   style="fill:#040606;fill-opacity:1;fill-rule:evenodd;stroke:none"
   id="path57"
   inkscape:connector-curvature="0" /><path
   d="m 1548.08,2462.02 c -1.1,-8.38 -9.65,-8.99 -12.31,-15.71 -2.57,4.65 -6.98,7.62 -11.81,10.19 -11.25,-3.25 -28.84,0.07 -40.09,-3.21 9.31,23.43 38.1,10.14 64.21,8.73"
   style="fill:#040606;fill-opacity:1;fill-rule:evenodd;stroke:none"
   id="path59"
   inkscape:connector-curvature="0" /><path
   d="m 970.066,2469.55 c -12.421,-11.51 -35.664,-3.06 -62.136,-4.77 11.281,17.29 37.461,2.4 62.136,4.77"
   style="fill:#040606;fill-opacity:1;fill-rule:evenodd;stroke:none"
   id="path61"
   inkscape:connector-curvature="0" /><path
   d="m 1519.58,2436.61 c -5.68,-12.52 -17.83,-18.18 -26.57,-27.5 -8.67,11.29 -32.49,1.23 -49.95,3 8.82,25.53 43.58,24.08 76.52,24.5"
   style="fill:#040606;fill-opacity:1;fill-rule:evenodd;stroke:none"
   id="path63"
   inkscape:connector-curvature="0" /><path
   d="m 891.445,2439.1 c 11.516,7.8 30.215,9.47 48.106,5.06 -10.039,-21.32 -45.598,-10.74 -70.188,-8.61 5.434,9.67 15.95,15.24 22.082,3.55"
   style="fill:#040606;fill-opacity:1;fill-rule:evenodd;stroke:none"
   id="path65"
   inkscape:connector-curvature="0" /><path
   d="m 2201.35,2415.01 c -5.26,-16.06 -24.06,-5.3 -42.19,-7.13 5.9,10.84 27.64,5.23 42.19,7.13"
   style="fill:#040606;fill-opacity:1;fill-rule:evenodd;stroke:none"
   id="path67"
   inkscape:connector-curvature="0" /><path
   d="m 898.945,2412.97 c -16.902,-8.98 -46.64,-4.57 -68.203,-8.65 10.723,17.7 42.918,12.33 68.203,8.65"
   style="fill:#040606;fill-opacity:1;fill-rule:evenodd;stroke:none"
   id="path69"
   inkscape:connector-curvature="0" /><path
   d="m 2174.79,2389.55 c -2.97,-5.74 -7.6,-9.76 -14.22,-11.71 -9.12,10.18 -32.39,-1.59 -53.99,3.06 16.21,9.69 42.54,8.8 68.21,8.65"
   style="fill:#040606;fill-opacity:1;fill-rule:evenodd;stroke:none"
   id="path71"
   inkscape:connector-curvature="0" /><path
   d="m 1470.67,2393.57 c 3.39,-18.17 -38.53,-25.38 -68.5,-24.64 9.29,22.36 34.36,28.19 68.5,24.64"
   style="fill:#040606;fill-opacity:1;fill-rule:evenodd;stroke:none"
   id="path73"
   inkscape:connector-curvature="0" /><path
   d="m 864.434,2387.62 c -28.731,-23.17 -50.579,-53.51 -103.055,-51.96 -2.727,24.2 44.871,30.68 76.617,32.49 4.289,10.09 -6.824,15.48 -3.633,18.08 11.621,0.31 14.524,2.41 30.071,1.39"
   style="fill:#040606;fill-opacity:1;fill-rule:evenodd;stroke:none"
   id="path75"
   inkscape:connector-curvature="0" /><path
   d="m 2142.25,2360.17 c -6.08,-20.92 -45.02,-7.61 -66.31,-12.67 -5.1,18.96 41.38,16.01 66.31,12.67"
   style="fill:#040606;fill-opacity:1;fill-rule:evenodd;stroke:none"
   id="path77"
   inkscape:connector-curvature="0" /><path
   d="m 824.355,2386.43 c -0.402,-5.7 -8.417,-3.49 -14.042,-3.71 -4.141,2.44 10.339,2.68 14.042,3.71"
   style="fill:#040606;fill-opacity:1;fill-rule:evenodd;stroke:none"
   id="path79"
   inkscape:connector-curvature="0" /><path
   d="m 1429.89,2352.36 c -4.93,-22.14 -35.93,-17.08 -60.44,-18.81 6.9,20.05 35.53,17.5 60.44,18.81"
   style="fill:#040606;fill-opacity:1;fill-rule:evenodd;stroke:none"
   id="path81"
   inkscape:connector-curvature="0" /><path
   d="m 1395.11,2315.06 c -5.66,-8.45 -14.77,-13.2 -20.44,-21.61 -0.62,19.7 -22.67,8.03 -35.87,6.73 4.9,19.36 33.76,13.83 56.31,14.88"
   style="fill:#040606;fill-opacity:1;fill-rule:evenodd;stroke:none"
   id="path83"
   inkscape:connector-curvature="0" /><path
   d="m 777.031,2319.36 c -10.691,-18.56 -31.406,-15.28 -56.355,-16.9 -2.473,19.83 35.515,14.59 56.355,16.9"
   style="fill:#040606;fill-opacity:1;fill-rule:evenodd;stroke:none"
   id="path85"
   inkscape:connector-curvature="0" /><path
   d="m 1981.97,2249.34 c 3.66,17.94 35.06,7.07 50.28,13 5.07,-0.03 2.38,-1.51 1.89,-4.04 -13.2,-7.32 -32.26,-8.56 -52.17,-8.96"
   style="fill:#040606;fill-opacity:1;fill-rule:evenodd;stroke:none"
   id="path87"
   inkscape:connector-curvature="0" /><path
   d="m 728.328,2284.32 c -1.348,-6.75 -9.031,-6.97 -12.234,-11.75 -6.785,5.25 -16.387,7.82 -29.903,6.58 6.856,9.25 27.063,4.5 42.137,5.17"
   style="fill:#040606;fill-opacity:1;fill-rule:evenodd;stroke:none"
   id="path89"
   inkscape:connector-curvature="0" /><path
   d="m 699.836,2260.87 c -31.477,-23.02 -52.973,-56.46 -111.074,-51.81 7.422,8.66 16.922,15.07 26.465,21.5 13.992,-2.08 48.679,-10.49 44.265,13.1 -3.574,9.2 -15.398,0.64 -23.957,2.49 10.969,16.45 45.195,12.69 64.301,14.72"
   style="fill:#040606;fill-opacity:1;fill-rule:evenodd;stroke:none"
   id="path91"
   inkscape:connector-curvature="0" /><path
   d="m 1999.61,2233 c 4.16,-1.22 4.18,-3.22 1.89,-6.06 -6.34,-5.08 -8.43,-1.92 -15.99,0.32 -3.54,-1.75 -6.99,-3.58 -6.23,-9.87 -8.93,-2.23 -17.62,-4.77 -30.02,-3.39 3.65,19.97 29.8,16.6 50.35,19"
   style="fill:#040606;fill-opacity:1;fill-rule:evenodd;stroke:none"
   id="path93"
   inkscape:connector-curvature="0" /><path
   d="m 1323.7,2244.44 c -5.62,-19.05 -27.99,-5.99 -48.17,-7.03 11.77,6.81 30.76,6.09 48.17,7.03"
   style="fill:#040606;fill-opacity:1;fill-rule:evenodd;stroke:none"
   id="path95"
   inkscape:connector-curvature="0" /><path
   d="m 1295.13,2217 c -7.93,-22.35 -36.52,-23.21 -62.53,-26.76 3.35,19.16 29.93,37.37 62.53,26.76"
   style="fill:#040606;fill-opacity:1;fill-rule:evenodd;stroke:none"
   id="path97"
   inkscape:connector-curvature="0" /><path
   d="m 1962.79,2191.71 c -15.9,1.57 -21.13,-7.9 -38.08,-5.24 2.05,10.46 33.16,11.22 38.08,5.24"
   style="fill:#040606;fill-opacity:1;fill-rule:evenodd;stroke:none"
   id="path99"
   inkscape:connector-curvature="0" /><path
   d="m 1922.3,2166.53 c -7.01,-11.78 -20.23,-17.09 -34.43,-21.33 1.33,9.53 13.91,24.92 34.43,21.33"
   style="fill:#040606;fill-opacity:1;fill-rule:evenodd;stroke:none"
   id="path101"
   inkscape:connector-curvature="0" /><path
   d="m 606.406,2190.73 c -4.636,-5.39 -9.062,-10.99 -14.297,-15.72 -13.308,5.6 -28.894,-0.21 -43.996,0.85 7.2,17.71 35.246,13.69 58.293,14.87"
   style="fill:#040606;fill-opacity:1;fill-rule:evenodd;stroke:none"
   id="path103"
   inkscape:connector-curvature="0" /><path
   d="m 1258.3,2175.71 c -6.77,-20.16 -38.99,-13.84 -60.38,-18.79 8.68,25.57 31.91,12.43 60.38,18.79"
   style="fill:#040606;fill-opacity:1;fill-rule:evenodd;stroke:none"
   id="path105"
   inkscape:connector-curvature="0" /><path
   d="m 1961.93,2147.71 c 9.61,1.36 12.8,-3.36 21.94,-2.43 -2.82,-224.06 6.44,-443.49 22.87,-660.63 16.11,-213.01 12.99,-445.12 24.92,-658.681 -11.35,0.23 -22.7,0.449 -34,0.672 18.38,220.359 -17.93,434.869 -23.09,650.639 -5.29,222.04 -8.2,438.92 -14.75,664.48 -0.15,2.84 -0.21,5.65 2.11,5.95"
   style="fill:#040606;fill-opacity:1;fill-rule:evenodd;stroke:none"
   id="path107"
   inkscape:connector-curvature="0" /><path
   d="m 1303.95,2156.83 c 20.71,11.14 14.45,-13.23 13.34,-32.28 -5.83,-101.89 1.95,-204.11 0.13,-296.08 -4.68,-234.16 2.42,-451.15 14.75,-664.47 4.51,-77.83 7.94,-155.1 7.05,-248.211 -0.05,-7.019 0.52,-27.937 -0.88,-43.988 -1.19,-14.199 -1.35,-27.262 -16.48,-25.68 -16.38,1.699 -10.25,17.668 -11.33,34.207 -6.03,92.07 -13.05,198.382 -8.14,294.262 3.93,76.3 -1.73,158.58 -3.2,242.12 -3.46,196.72 -3.86,408.5 0.24,614.16 0.85,41.87 -3.48,84.34 0.45,122.04 0.05,0.64 -1.06,5.81 4.07,3.92"
   style="fill:#040606;fill-opacity:1;fill-rule:evenodd;stroke:none"
   id="path109"
   inkscape:connector-curvature="0" /><path
   d="m 1339.98,2158.1 c 19.74,8.41 12.04,-16.61 11.33,-32.24 -4.35,-99.45 1.93,-206.23 0.11,-298.06 -2.33,-116.35 8.47,-220.63 13.46,-326.37 5.19,-109.56 7.39,-216.74 15.55,-324.4 8.34,-110.06 5.39,-222.6 3.4,-332.151 -7.97,0.152 -16,0.301 -24.01,0.473 -5.23,20.296 -0.13,52.296 -0.45,76.046 -2.95,198.962 -22.37,400.522 -23.97,604.632 -1.63,206.61 1.12,414.86 2.44,626.13 -0.13,2.83 -0.21,5.65 2.14,5.94"
   style="fill:#040606;fill-opacity:1;fill-rule:evenodd;stroke:none"
   id="path111"
   inkscape:connector-curvature="0" /><path
   d="m 4.10156,2182.72 c 14.99224,6.25 6.28124,-31.16 7.10154,-46.15 2.7032,-51.5 6.9102,-103.08 8.8946,-156.23 5.9296,-162.82 12.2187,-311.97 16.4531,-478.46 2.7461,-107.66 9.7109,-214.98 7.5586,-322.23 -2.1289,-107.74 16.3515,-212.638 11.7304,-316.33 -21.9414,107.481 -20.125,260.02 -18.2031,390.49 1.5039,105.1 -3.9453,210.51 -5.7734,314.18 -1.7461,101.15 -17.0469,200.8 -20.0469,300.49 -3.05468,103.97 -1.7461,206.5 -11.8164,308.3 -0.0195313,3.45 1.55078,5.16 4.10156,5.94"
   style="fill:#040606;fill-opacity:1;fill-rule:evenodd;stroke:none"
   id="path113"
   inkscape:connector-curvature="0" /><path
   d="m 632.004,2170.21 c 25.484,3.28 13.516,-54.58 12.586,-72.28 -4.883,-89.4 -0.93,-176.89 2.937,-254.11 10.879,-216.64 34.368,-422.78 30.95,-654.81 -1.336,-93.46 0.136,-195.971 -1.973,-302.049 -0.188,-8.801 4.59,-32.691 -8.691,-33.84 -14.473,-1.223 -10.625,39.719 -10.918,54.25 -2.95,146.529 -4.485,287.539 -7.207,442.279 -1.27,72.76 -1.614,147.28 -5.645,220.15 -6.023,109.7 -6.816,219.06 -9.465,328.29 -2.066,87.7 0.235,176.84 -4.695,266.13 -0.098,2.89 -0.203,5.71 2.121,5.99"
   style="fill:#040606;fill-opacity:1;fill-rule:evenodd;stroke:none"
   id="path115"
   inkscape:connector-curvature="0" /><path
   d="m 30.0313,2180.19 c 8.0234,-0.17 16.0429,-0.33 24.0195,-0.49 -7.1445,-225.34 16.8281,-442.16 16.7695,-664.5 -0.0312,-165 11.3789,-331.27 12.0313,-500.35 0.2343,-48.069 12.5195,-91.741 7.1953,-142.19 -0.3125,-2.769 3.5664,-15.832 -6.2774,-13.879 -14.707,2.68 -7.5195,24.219 -7.3632,32.16 1.875,94.59 -14.2188,190.599 -12.2657,288.309 2.2383,112.95 -4.1875,227.04 -7.3242,336.22 -6.3672,221.78 -16.9648,445.23 -26.8945,658.71 -1.3281,1.64 -3,5.56 0.1094,6.01"
   style="fill:#040606;fill-opacity:1;fill-rule:evenodd;stroke:none"
   id="path117"
   inkscape:connector-curvature="0" /><path
   d="m 663.977,2167.55 c 1.636,-0.38 1.953,-2.04 3.961,-2.06 12.636,-5.15 9.093,-24.95 9.308,-34.2 1.184,-42.72 -0.508,-85.72 -2.539,-127.99 -2.656,-55.29 3.242,-111.98 6.758,-164.16 14.289,-214.54 30,-421.81 28.867,-658.77 -0.437,-93.76 3.313,-191.35 6.133,-294.179 0.293,-10.089 1.348,-32.179 -8.652,-33.851 -20.391,-3.41 -10.176,51.629 -10.594,70.219 -3.989,178.541 5.144,377.941 -7.09,548.291 -7.348,101.84 -11.399,202.13 -18.027,300.44 -8.657,128.32 -10.735,259.09 -8.274,390.28 0.051,1.99 0.098,4 0.149,5.98"
   style="fill:#040606;fill-opacity:1;fill-rule:evenodd;stroke:none"
   id="path119"
   inkscape:connector-curvature="0" /><path
   d="m 2005.8,2140.83 c 8.81,1.23 11.23,-3.62 19.96,-2.38 9.83,-215.3 20.33,-434.07 28.95,-654.76 4.27,-109.3 2.69,-221.33 9.41,-332.28 3.32,-55.06 5.49,-111.11 4.71,-166.129 -0.8,-54.351 4.18,-107.679 0.82,-160.082 -14.32,-0.719 -27.77,-0.91 -17.79,12.379 -13.62,218.522 -8.4,432.002 -25.16,644.662 -12.36,157.25 -21.21,315.78 -24.49,478.63 -1.14,56.62 5.76,120.2 1.46,174.02 -0.13,2.83 -0.21,5.68 2.13,5.94"
   style="fill:#040606;fill-opacity:1;fill-rule:evenodd;stroke:none"
   id="path121"
   inkscape:connector-curvature="0" /><path
   d="m 1909.06,2106.77 c 9.12,12.34 20.86,21.87 30.71,33.39 1.71,0.33 1.89,-0.84 1.97,-2.06 4.45,-224.44 6.87,-440.89 12.87,-660.42 5.78,-212.42 38.61,-425.43 25.25,-638.66 3.17,-9.719 5.75,-7.758 -2.16,-9.989 -19.56,-5.402 -15.02,11.848 -15.49,28.321 -10.41,421.428 -38.56,839.858 -53.15,1249.418"
   style="fill:#040606;fill-opacity:1;fill-rule:evenodd;stroke:none"
   id="path123"
   inkscape:connector-curvature="0" /><path
   d="m 695.891,2162.91 c 21.687,3.26 9.168,-63.8 8.433,-78.2 -1.902,-36.87 2.141,-58.68 4.406,-82.08 25.516,-270.08 37.786,-534.05 43.641,-821.1 1.984,-97.21 8.027,-196.569 10.156,-292.26 0.293,-10.622 4.004,-33.442 -6.726,-37.879 -22.637,-11.75 -20.977,17.828 -21.348,32.449 -5.566,209.27 2.703,423.98 -9.504,628.35 -6.336,106.16 -14.511,213.09 -21.636,318.5 -7.422,108.45 -8.43,218.85 -9.536,326.3 -0.086,2.82 -0.23,5.64 2.114,5.92"
   style="fill:#040606;fill-opacity:1;fill-rule:evenodd;stroke:none"
   id="path125"
   inkscape:connector-curvature="0" /><path
   d="m 1279.83,2151.29 c 1.69,0.35 1.87,-0.82 1.96,-2.04 -14.4,-336.9 6.84,-699.07 -2.41,-1024.23 -2.35,-82.05 7.56,-167.219 11.04,-250.282 0.67,-16.488 2.38,-23.558 -6.55,-25.847 -26.49,-6.993 -18.67,47.718 -18.66,66.371 0.03,301.158 -0.07,613.158 -7.94,908.398 -2.06,77.66 -0.03,166.49 4.89,245.97 2.51,40.32 -5.76,71.2 17.67,81.66"
   style="fill:#040606;fill-opacity:1;fill-rule:evenodd;stroke:none"
   id="path127"
   inkscape:connector-curvature="0" /><path
   d="m 109.18,930.27 c -10.2659,102.56 -4.016,205.77 -9.8753,308.28 -5.8945,103.62 -7.3711,205.7 -7.7891,310.25 -0.8515,205.62 -25.7148,411.93 -17.6758,620.52 5.3399,6.57 13.4532,-16.77 21.5899,-20.44 -9.1992,-98.83 -0.2461,-198.39 4.082,-298.17 4.4143,-102.33 -0.4609,-205.6 1.8943,-308.1 2.215,-99.98 10,-199.8 7.949,-302.23 -2.042,-102.29 2.665,-206.13 -0.175,-310.11"
   style="fill:#040606;fill-opacity:1;fill-rule:evenodd;stroke:none"
   id="path129"
   inkscape:connector-curvature="0" /><path
   d="m 725.867,2160.32 c 9.231,-1.58 9.36,-11.91 15.664,-16.31 -0.386,-74.88 7.461,-150.74 17.473,-226.38 10.207,-76.81 9.363,-153.34 13.418,-232.37 8.047,-156.11 20.469,-310.66 32.851,-460.76 -6.789,-9.08 -18.957,-8.48 -22.402,-19.55 -4.773,-15.05 -0.469,-69.66 0.149,-92.04 2.234,-84.47 14.136,-186.269 6.785,-262.211 -14.09,2.571 -7.278,20.781 -7.461,28.172 -1.895,73.649 -6.414,151.369 -7.5,226.199 -1.239,87.8 -1.524,177.04 -4.715,266.18 -6.223,176.78 -19.348,352.38 -33.586,522.8 -7.297,87.65 -17.91,164.69 -10.813,260.28 0.04,2.02 0.09,4.02 0.137,5.99"
   style="fill:#040606;fill-opacity:1;fill-rule:evenodd;stroke:none"
   id="path131"
   inkscape:connector-curvature="0" /><path
   d="m 1369.7,2143.53 c 9.98,-6.12 15.85,-16.17 23.5,-24.5 -5.39,-109.79 6.58,-217.03 9.56,-322.28 9.28,-320.82 48.88,-621.82 33.08,-952.922 -8.01,0.184 -15.99,0.332 -23.99,0.481 -10.9,9.5 -5.49,27.101 -5.28,38.121 4.06,204.38 -13.53,405.53 -21.97,604.6 -4.43,105.8 -13.16,213.54 -13.61,320.35 -0.42,111.13 1.9,227.71 -1.29,336.15"
   style="fill:#040606;fill-opacity:1;fill-rule:evenodd;stroke:none"
   id="path133"
   inkscape:connector-curvature="0" /><path
   d="m 577.766,2157.28 c -6.157,-12.68 -15.508,-22 -22.7,-33.55 -18.777,0.18 -45.457,-6.4 -72.105,-4.57 22.195,26.65 45.281,39.87 94.805,38.12"
   style="fill:#040606;fill-opacity:1;fill-rule:evenodd;stroke:none"
   id="path135"
   inkscape:connector-curvature="0" /><path
   d="m 1221.6,2140.44 c -1.76,-5.65 -6.95,-7.74 -10.26,-11.8 -11.79,4.34 -27.69,-3.44 -42.06,-3.14 8.83,9.6 31.25,10.77 52.32,14.94"
   style="fill:#040606;fill-opacity:1;fill-rule:evenodd;stroke:none"
   id="path137"
   inkscape:connector-curvature="0" /><path
   d="m 1881.46,2125.3 c -4.06,-8.69 -18.75,-6.35 -28.18,-9.43 5.68,6.99 17.27,7.86 28.18,9.43"
   style="fill:#040606;fill-opacity:1;fill-rule:evenodd;stroke:none"
   id="path139"
   inkscape:connector-curvature="0" /><path
   d="m 609.57,2148.66 c 1.731,0.33 1.875,-0.82 1.985,-2.07 7.34,-379.78 15.496,-755.76 23.258,-1142.74 0.636,-33.471 3.703,-82.131 3.578,-120.131 -0.012,-13.278 2.722,-31.289 -12.59,-29.758 -15.371,1.559 -8.848,17.168 -9.317,34.199 -3.906,146.42 -12.226,290.18 -9.14,444.31 5.422,271.91 2.492,546.55 -1.875,810.24 2.48,0.82 4.16,2.49 4.101,5.95"
   style="fill:#040606;fill-opacity:1;fill-rule:evenodd;stroke:none"
   id="path141"
   inkscape:connector-curvature="0" /><path
   d="m 1243.13,2116 c 1.7,0.34 1.86,-0.79 1.96,-2.01 -17.21,-215.73 1.63,-420.01 -2.77,-640.13 -2.06,-104.16 -0.74,-213.58 1.61,-320.12 1.68,-76.13 0.89,-152.69 1.24,-240.072 0.07,-13.398 8.78,-66.648 -9.26,-61.84 -17.34,4.641 -11.18,3.793 -11.47,26.223 -0.99,82.789 2.58,171.059 2.93,248.019 0.5,99.27 2.78,194.7 1.74,286.05 -2.72,237.06 -16.09,453.16 -4.32,688.25 7.4,3.88 12.07,10.61 18.34,15.63"
   style="fill:#040606;fill-opacity:1;fill-rule:evenodd;stroke:none"
   id="path143"
   inkscape:connector-curvature="0" /><path
   d="m 1188.95,2109.09 c -7.33,-21.63 -36.18,-20.88 -60.48,-24.8 5.38,23.27 39.01,24.73 60.48,24.8"
   style="fill:#040606;fill-opacity:1;fill-rule:evenodd;stroke:none"
   id="path145"
   inkscape:connector-curvature="0" /><path
   d="m 1854.86,2095.82 c -3.4,-7.34 -10.64,-10.66 -14.37,-17.69 -9.94,5.68 -17.19,-2.04 -28.01,-1.47 8.87,11.84 21.6,19.72 42.38,19.16"
   style="fill:#040606;fill-opacity:1;fill-rule:evenodd;stroke:none"
   id="path147"
   inkscape:connector-curvature="0" /><path
   d="m 1410.87,2100.68 c 11.1,-11.59 22.12,-23.15 31.25,-36.63 -0.78,-206.75 20.48,-410.3 25.74,-616.69 4.63,-182.28 16.38,-356.04 19.13,-544.52 0.16,-9.738 0.72,-22.731 -0.7,-36.02 -0.92,-8.621 4.55,-29.761 -16.48,-23.66 -17.29,-1.789 -11.34,19.871 -11.43,28.238 -0.35,36.223 3.07,82.922 4.31,115.973 3.44,91.719 -6.9,184.939 -12.49,278.299 -10.82,181.25 -23.84,362.42 -29.01,550.74 -2.64,94.98 -12.11,189.27 -10.32,284.27"
   style="fill:#040606;fill-opacity:1;fill-rule:evenodd;stroke:none"
   id="path149"
   inkscape:connector-curvature="0" /><path
   d="m 108.938,2122.6 c 30.984,-8.94 20.875,-55.21 19.851,-106.44 -3.699,-186.05 15.75,-356.83 19.356,-536.51 3.906,-195.08 13.554,-381.99 6.242,-590.271 -0.625,-18.141 -0.383,-30.25 -8.633,-31.848 -17.434,-3.422 -16.234,48.91 -16.828,60.348 -8.164,163.541 7.558,338.771 -1.961,504.171 -4.531,79.6 -7.91,163.1 -9.133,244.25 -0.613,43.53 3.731,86.38 2.551,127.97 -1.137,40.65 -5.832,79.62 -7.629,118.19 -3.301,70.04 3.894,147.33 -3.816,210.14"
   style="fill:#040606;fill-opacity:1;fill-rule:evenodd;stroke:none"
   id="path151"
   inkscape:connector-curvature="0" /><path
   d="m 760.879,2111.64 c 17.312,-17.43 26.223,-42.83 44.851,-58.9 -10.71,-15 -6.707,-35.09 -7.031,-51.91 -2.515,-127.34 6.477,-250.69 14.594,-372.39 8.074,-121.76 15.02,-244.55 24.742,-362.56 1.211,-13.96 6.836,-38.02 -6.863,-45.91 -13.086,7.36 -8.059,33.19 -9.031,50.21 -6.965,120.87 -20.508,250.77 -28.411,380.66 -4.57,75.3 -3.054,150.75 -9.519,224.25 -6.32,71.5 -20.063,141.29 -23.867,208.52 -0.571,9.33 0.879,17.92 0.535,28.03"
   style="fill:#040606;fill-opacity:1;fill-rule:evenodd;stroke:none"
   id="path153"
   inkscape:connector-curvature="0" /><path
   d="m 1939.65,829.789 c -7.95,0.18 -15.96,0.34 -23.99,0.492 -9.2,19.797 -5.91,47.938 -6.46,74.18 -1.8,80.289 3.28,159.529 -1.31,238.079 -6.01,104.06 -7.03,207.84 -9.78,310.25 -5.69,206.54 -26.76,404.53 -27.9,610.72 5.63,9.16 12.49,16.97 20.51,23.6 1.7,0.34 1.86,-0.82 1.96,-2.04 6.64,-423.51 47.55,-826.34 46.97,-1255.281"
   style="fill:#040606;fill-opacity:1;fill-rule:evenodd;stroke:none"
   id="path155"
   inkscape:connector-curvature="0" /><path
   d="m 582.773,2109.15 c 1.719,0.36 1.883,-0.81 1.985,-2.04 1.988,-209 12.129,-411.69 5.359,-634.27 -5.566,-183.5 -1.047,-371.66 5.02,-552.231 0.461,-14.461 9.211,-66.718 -9.344,-67.82 -13.789,-0.82 -10.59,11.402 -11.457,28.231 -4.758,92.039 -2.332,184.39 -0.535,274.08 2.129,107.03 -1.828,210.55 0.23,314.09 3.282,163.85 -7.976,301.12 -4.695,466.2 0.477,24.91 -0.106,52.14 -0.469,78.05 -0.539,40.2 -8.926,77.53 13.906,95.71"
   style="fill:#040606;fill-opacity:1;fill-rule:evenodd;stroke:none"
   id="path157"
   inkscape:connector-curvature="0" /><path
   d="m 538.645,2102.04 c -4.407,-8.36 -10.09,-15.35 -14.497,-23.71 -30.195,0.81 -60.308,1.53 -88.015,-0.27 7.851,12.26 22.82,17.08 30.586,29.41 14.004,-16.02 44.687,-0.4 71.926,-5.43"
   style="fill:#040606;fill-opacity:1;fill-rule:evenodd;stroke:none"
   id="path159"
   inkscape:connector-curvature="0" /><path
   d="m 1204.34,2078.79 c 1.7,0.32 1.89,-0.84 1.95,-2.06 -15.03,-305.77 7.96,-605.67 1.62,-924.25 -1.71,-85.41 0.47,-176.261 -3.44,-272.019 -0.23,-6.52 3.67,-26.891 -10.51,-27.813 -10.65,-0.679 -11.95,4.571 -11.54,26.243 3.81,180.509 -6.87,357.489 -3.21,540.219 4.04,203.35 -12.7,391.04 -2.48,578.2 0.91,16.68 -3.7,36.39 -1.05,48.03 3.62,15.84 20.8,21.72 28.66,33.45"
   style="fill:#040606;fill-opacity:1;fill-rule:evenodd;stroke:none"
   id="path161"
   inkscape:connector-curvature="0" /><path
   d="m 1818.14,2058.55 c 6.18,-13.53 -21.71,-26.24 -44.49,-23.11 7.8,15.25 25.88,15.56 44.49,23.11"
   style="fill:#040606;fill-opacity:1;fill-rule:evenodd;stroke:none"
   id="path163"
   inkscape:connector-curvature="0" /><path
   d="m 1148.12,2067.91 c -7.61,-20.64 -34.98,-20.77 -60.46,-22.8 6.92,7.07 17.61,21.08 24.41,21.51 13.65,-1.23 24.4,0.49 36.05,1.29"
   style="fill:#040606;fill-opacity:1;fill-rule:evenodd;stroke:none"
   id="path165"
   inkscape:connector-curvature="0" /><path
   d="m 1849.73,2039.91 c 1.73,0.34 1.89,-0.82 2.01,-2.03 10.19,-300.76 29.04,-596.58 35.92,-906.98 1.73,-78.22 2.85,-183.572 2.59,-272.111 -0.09,-15.379 3.81,-22.859 -6.54,-25.879 -25.7,-7.492 -16.44,35.602 -16.91,54.36 -4.24,178.16 -19.24,343.48 -17.56,524.5 1.48,158.65 -9.45,296.46 -19.1,446.48 -2.99,46.75 -11.1,112.16 -0.9,154.07 2.52,10.67 15.78,22.27 20.49,27.59"
   style="fill:#040606;fill-opacity:1;fill-rule:evenodd;stroke:none"
   id="path167"
   inkscape:connector-curvature="0" /><path
   d="m 149.934,2071.76 c 1.699,0.36 1.882,-0.82 1.941,-2.02 -0.371,-1.7 0.73,-1.93 1.973,-2.04 14.257,-38.25 8.808,-115.19 10.507,-176.27 3.907,-144.62 17.598,-291.97 21.125,-444.53 3.985,-170.69 12.059,-347.02 13.504,-528.431 0.125,-16.711 6.805,-69.231 -17.238,-61.641 -12.73,4.012 -7.73,13.68 -7.383,32.152 7.004,351.95 -14.636,689.23 -25.679,1020.77 -1.68,51.78 1.375,103.21 -0.864,156.09 1.106,1.58 2.141,3.18 2.114,5.92"
   style="fill:#040606;fill-opacity:1;fill-rule:evenodd;stroke:none"
   id="path169"
   inkscape:connector-curvature="0" /><path
   d="m 509.805,2060.61 c -9.91,-31.2 -68.594,-11.64 -104.317,-15.95 -8.457,2.44 8.821,10.43 10.282,15.84 27.66,-3.18 60.675,2.73 94.035,0.11"
   style="fill:#040606;fill-opacity:1;fill-rule:evenodd;stroke:none"
   id="path171"
   inkscape:connector-curvature="0" /><path
   d="m 1461.6,2037.66 c -0.51,3.57 1.97,4.06 2.01,1.97 6.53,-14.06 27.3,-20.9 31.3,-36.66 8.08,-31.41 -3.65,-81.33 -2.46,-123.98 3.24,-117.48 16.1,-225.17 21.16,-344.52 3.48,-82.41 3.3,-161.72 5.23,-238.16 2.05,-80.24 8.86,-158.06 7.39,-234.2 -1.35,-67.2 -4.59,-132.669 -2,-200.008 0.46,-12.622 4.22,-17.551 -4.44,-19.934 -22.01,-6.148 -13.05,46.902 -12.65,66.293 1.64,82.59 -4.26,152.159 -7.45,228.189 -10.54,249.56 -23.03,502.95 -35.14,746.91 -2.5,50.03 -1.02,104.81 -2.95,154.1"
   style="fill:#040606;fill-opacity:1;fill-rule:evenodd;stroke:none"
   id="path173"
   inkscape:connector-curvature="0" /><path
   d="m 547.734,2057.86 c 1.446,-298.32 12.09,-598.86 5.899,-910.34 -1.668,-84.33 -0.379,-178.899 0.703,-266.102 0.105,-8.848 3.281,-28.18 -8.594,-29.848 -17.656,-2.5 -11.14,43.598 -10.742,64.219 0.48,24.402 1.477,73.57 1.504,75.992 1.184,58.929 2.09,104.309 3.039,151.989 2,100.97 -5.363,191.77 -8.242,288.24 -2.844,94.31 -3.086,198.76 -6.196,292.19 -2.285,68.9 -0.996,150.77 0.469,224.06 0.489,25.17 -4.031,53.05 -0.594,72.03 2.833,15.52 17.493,27.19 22.754,37.57"
   style="fill:#040606;fill-opacity:1;fill-rule:evenodd;stroke:none"
   id="path175"
   inkscape:connector-curvature="0" /><path
   d="m 1155.36,2029.73 c 1.72,0.36 1.88,-0.81 1.95,-2.04 -12.15,-196.58 5.66,-417.61 1.25,-640.19 -2.65,-133.36 0.18,-271.46 3.88,-410.18 0.51,-20.511 3.85,-75.011 -0.02,-100.031 -2.44,-15.719 3.24,-21.07 -12.42,-21.75 -15.74,-0.687 -9.3,14.449 -9.34,34.191 -0.07,43.829 3.84,91.911 4.64,131.97 1.6,80.35 -5.33,161.94 -7.14,244.2 -1.73,78.75 -0.71,159.59 -3.12,246.11 -4.25,152.96 -1.84,310.36 -4.72,466.26 -0.57,29.62 4.51,35.54 25.04,51.46"
   style="fill:#040606;fill-opacity:1;fill-rule:evenodd;stroke:none"
   id="path177"
   inkscape:connector-curvature="0" /><path
   d="m 1789.3,2017.1 c -5.3,-16.27 -27.95,-14.44 -48.3,-15.02 4.41,17.14 25.33,17.12 48.3,15.02"
   style="fill:#040606;fill-opacity:1;fill-rule:evenodd;stroke:none"
   id="path179"
   inkscape:connector-curvature="0" /><path
   d="m 869.141,1219.21 c -14.883,-3.83 -9.051,13.9 -9.637,18.23 -15.609,119.03 -16.234,252.53 -24.438,378.55 -9.003,136.52 -21.011,274.66 -17.793,414.5 -0.332,9.12 22.981,-21.69 25.481,-28.54 8.418,-23.36 5.762,-64.83 6.008,-98.14 1.343,-168.9 17.246,-327.01 26.277,-488.65 3.438,-61.07 -0.976,-114.77 -1.504,-178.01 -0.051,-4.61 8.195,-17.63 -4.394,-17.94"
   style="fill:#040606;fill-opacity:1;fill-rule:evenodd;stroke:none"
   id="path181"
   inkscape:connector-curvature="0" /><path
   d="m 1107.33,2028.69 c -1.69,-19.31 -28.52,-12.49 -48.26,-13.03 7.33,13.72 37.79,8.71 48.26,13.03"
   style="fill:#040606;fill-opacity:1;fill-rule:evenodd;stroke:none"
   id="path183"
   inkscape:connector-curvature="0" /><path
   d="m 181.047,2027.14 c -2.004,8.54 17.996,-15.93 19.578,-22.4 4.836,-20.27 -0.176,-49.12 0.488,-76.01 4.141,-173.29 15.125,-329.93 23.977,-502.62 4.851,-94.7 8.047,-196.52 12.215,-290.31 3,-67.75 -5.852,-153.382 -0.489,-226.062 0.938,-12.449 15.579,-62.777 -11.093,-53.797 -12.305,4.168 -7.735,13.418 -7.364,32.18 3.75,187.689 -6.843,375.099 -12.949,554.399 -7.004,206.64 -19.597,388.45 -24.363,584.62"
   style="fill:#040606;fill-opacity:1;fill-rule:evenodd;stroke:none"
   id="path185"
   inkscape:connector-curvature="0" /><path
   d="m 483.074,2025.14 c -12.293,-19.18 -24.566,-38.4 -39.109,-55.23 -30.227,-10.03 -77.156,-2.73 -116.082,-3.71 4.683,10.8 12.195,18.61 20.515,25.6 17.649,-3.25 46.68,-2.94 71.946,-3.44 16.648,-0.34 39.636,-5.31 40.254,11.21 -5.285,13.55 -28.285,8.56 -45.864,8.92 -18.004,0.36 -37.437,2.06 -50.039,-1 6.235,32.36 77.446,14.64 118.379,17.65"
   style="fill:#040606;fill-opacity:1;fill-rule:evenodd;stroke:none"
   id="path187"
   inkscape:connector-curvature="0" /><path
   d="m 1808.79,1990.72 c 1.68,0.34 1.85,-0.81 1.95,-2.03 -5.76,-203.37 22.46,-375.63 18.42,-582.51 -1.95,-97.74 4.2,-194.11 8.16,-292.27 2.8,-69.43 8.54,-134.18 9.71,-214.242 0.16,-9.547 6.95,-60.148 -9.26,-63.848 -21.64,-4.871 -17.67,31.739 -19,50.41 -2.13,30.211 -2.64,57.821 -2.72,64.079 -2.73,136.961 -0.76,270.101 -8.16,394.281 -11.5,192.57 -24.08,375.14 -22.85,560.59 0.12,17.03 -5.27,37.07 -3.01,48.07 3.17,15.66 21.21,23.61 26.76,37.47"
   style="fill:#040606;fill-opacity:1;fill-rule:evenodd;stroke:none"
   id="path189"
   inkscape:connector-curvature="0" /><path
   d="m 1082.71,1997.18 c -13.01,-21.85 -32.22,-37.22 -72.65,-30.57 -3.95,7.2 19.08,20.77 26.6,29.49 -0.35,1.7 0.83,1.87 2.05,1.94 8.22,0.87 29.56,-1.26 44,-0.86"
   style="fill:#040606;fill-opacity:1;fill-rule:evenodd;stroke:none"
   id="path191"
   inkscape:connector-curvature="0" /><path
   d="m 1764.61,1983.58 c -4.55,-19.09 -27.99,-12.15 -48.22,-11.04 4.45,15.77 29.08,10.58 48.22,11.04"
   style="fill:#040606;fill-opacity:1;fill-rule:evenodd;stroke:none"
   id="path193"
   inkscape:connector-curvature="0" /><path
   d="m 1512.55,1982.63 c 11.96,-9.45 23.95,-18.81 31.36,-32.64 -11.71,-45.88 -7.92,-95.02 -8.85,-141.86 -6.79,-340.52 50.39,-629.13 44.77,-967.161 -10.69,0.222 -21.37,0.422 -32.01,0.64 -13.95,95.95 -0.52,193.751 -4.23,290.161 -7.35,189.42 -8.16,378.47 -18.75,566.52 -5.37,95.84 -17.12,192.77 -12.29,284.34"
   style="fill:#040606;fill-opacity:1;fill-rule:evenodd;stroke:none"
   id="path195"
   inkscape:connector-curvature="0" /><path
   d="m 504.602,2000.68 c 1.707,0.33 1.875,-0.8 1.992,-2.02 1.316,-194.21 -4.641,-392.84 4.258,-588.25 6.257,-137.13 8.601,-271.35 5.527,-426.219 -0.402,-20.472 -1.809,-79.441 -2.199,-110 -0.02,-1.621 6.14,-22.82 -8.477,-23.839 -22.734,-1.532 -10.84,58.968 -10.566,72.257 1.593,79.661 5.488,178.991 1.301,266.041 -4.133,85.48 -8.547,174.79 -6.829,260.2 2.852,143.71 2.942,257.02 -4.187,392.19 -2.16,40.71 -8.039,100.78 0.672,134.01 2.773,10.71 13.972,16.58 18.508,25.63"
   style="fill:#040606;fill-opacity:1;fill-rule:evenodd;stroke:none"
   id="path197"
   inkscape:connector-curvature="0" /><path
   d="m 1110.42,1982.63 c 1.7,0.33 1.86,-0.82 1.94,-2.04 0.31,-238.91 1.59,-488.35 7.58,-724.34 3.27,-128.32 4.11,-232.64 0.68,-368.129 -0.39,-14.551 3.15,-29.543 -8.61,-29.82 -12.84,-0.321 -6.12,9.461 -5.5,24.117 11.66,282.912 -9.42,531.412 -18.19,794.572 -2,59.93 -0.58,138.61 0.11,208.06 0.29,23.84 -5.66,52.65 -0.58,70.01 3.8,12.98 18.57,15.01 22.57,27.57"
   style="fill:#040606;fill-opacity:1;fill-rule:evenodd;stroke:none"
   id="path199"
   inkscape:connector-curvature="0" /><path
   d="m 1737.99,1952.13 c -1.31,-21.83 -33.77,-11.11 -54.27,-12.95 6.29,18.52 31.49,15.46 54.27,12.95"
   style="fill:#040606;fill-opacity:1;fill-rule:evenodd;stroke:none"
   id="path201"
   inkscape:connector-curvature="0" /><path
   d="m 218.125,1980.39 c 37.52,-18.45 20.254,-102.88 20.73,-164.45 0.364,-44.86 3.301,-89.07 5.43,-128.14 13.449,-243.44 18.195,-534.14 26.645,-772.73 0.73,-20.211 12.886,-43.23 -3.176,-59.968 -11.375,5.558 -6.531,21.839 -7.434,30.16 -8.035,75.84 -0.996,166.818 -5.007,250.188 -6.805,141.18 -6.915,281.81 -15.547,424.4 -5.481,90.22 -12.332,179.64 -16.543,274.4 -2.215,49.77 -0.91,98.9 -5.098,146.14"
   style="fill:#040606;fill-opacity:1;fill-rule:evenodd;stroke:none"
   id="path203"
   inkscape:connector-curvature="0" /><path
   d="m 1031.71,1948.19 c -6.99,-21.3 -38.507,-17.1 -64.355,-18.74 9.415,7.16 23.961,36.3 34.345,17.33 11.82,-1.44 17.88,3.16 30.01,1.41"
   style="fill:#040606;fill-opacity:1;fill-rule:evenodd;stroke:none"
   id="path205"
   inkscape:connector-curvature="0" /><path
   d="m 1555.56,1931.73 c -0.35,1.71 0.81,1.89 2.01,1.97 -0.51,3.6 1.97,4.09 2.03,1.98 7.64,-9.16 22.29,-17.57 25.38,-30.52 8.72,-36.57 -3.41,-98.18 -2.79,-139.99 2.08,-140.01 19.25,-268.46 17.96,-406.46 -1.57,-163.92 14.79,-310.82 22.56,-472.589 0.21,-3.769 9.16,-61.641 -16.91,-45.66 -8.98,5.5 -4.95,14.32 -5.39,32.109 -1.83,78.071 -2.83,168.91 -7.21,240.21 -5.28,86.85 -15.58,178.29 -20.71,264.5 -5.57,92.5 -9.52,180.26 -16.67,268.37 -7.34,90.37 3.23,188.83 -0.26,286.08"
   style="fill:#040606;fill-opacity:1;fill-rule:evenodd;stroke:none"
   id="path207"
   inkscape:connector-curvature="0" /><path
   d="m 1763.61,1933.62 c 1.7,0.33 1.9,-0.83 1.98,-2.05 -6.45,-285.18 24.74,-539.85 29.64,-820.81 1.43,-80.08 3.34,-165.272 5.16,-242.158 0.24,-7.981 4.59,-24.723 -6.54,-29.883 -16.53,-2.391 -9.06,18.722 -9.53,24.199 -14.03,152.722 -13.79,315.402 -28.68,470.692 -12.03,125.66 -19.37,251.96 -20.41,380.51 -0.35,45.04 5.51,88.33 4.63,131.94 -0.31,15.59 -5.86,34.74 -2.98,50.08 3.37,17.99 20.15,19.31 26.73,37.48"
   style="fill:#040606;fill-opacity:1;fill-rule:evenodd;stroke:none"
   id="path209"
   inkscape:connector-curvature="0" /><path
   d="m 1078.05,860.969 c -9.52,4.441 -7.41,18.949 -7.45,26.172 -0.06,10.578 2.45,22.05 2.64,31.937 1.14,66.692 -4.17,149.662 -7.59,222.222 -8.84,187.5 -8.95,388.72 -20.55,574.57 -1.76,27.5 -2.42,62.23 -4.13,96.1 -1.6,32.96 -7.29,72.79 -2.06,96.05 3.57,15.99 18.31,18.92 28.62,31.45 1.75,0.36 1.87,-0.82 1.98,-2.04 -18.78,-277.71 25.4,-532.79 19.89,-808.61 -1.55,-77.65 4.82,-164.011 -2.9,-246 -0.59,-6.25 2.32,-20.601 -8.45,-21.851"
   style="fill:#040606;fill-opacity:1;fill-rule:evenodd;stroke:none"
   id="path211"
   inkscape:connector-curvature="0" /><path
   d="m 1671.47,1927.43 c 5.97,-9.94 27.07,-5.35 41.91,-6.84 -7.66,-20.39 -32.17,-11.29 -56.3,-12.86 3.98,7.39 11.54,11.12 14.39,19.7"
   style="fill:#040606;fill-opacity:1;fill-rule:evenodd;stroke:none"
   id="path213"
   inkscape:connector-curvature="0" /><path
   d="m 425.508,1946.26 c -2.078,-8.01 -8.008,-12.09 -12.383,-17.77 -40.156,-0.71 -70.852,7.72 -111.887,6.24 -4.031,7.29 10.012,10.59 12.367,17.76 26.114,-10.01 73.895,-2.79 111.903,-6.23"
   style="fill:#040606;fill-opacity:1;fill-rule:evenodd;stroke:none"
   id="path215"
   inkscape:connector-curvature="0" /><path
   d="m 465.703,851.18 c -12.539,1.211 -9.211,20.41 -9.504,26.199 -7.136,166.781 -1.922,339.621 -3.855,508.191 -2.063,181.68 -0.723,364.32 -5.254,540.26 7.14,6.17 11.308,15.45 18.445,21.64 1.692,0.29 1.867,-0.82 1.953,-2.06 -8.093,-123.16 9.094,-246.11 6.543,-374.23 -1.59,-80.9 -3.101,-162.1 -0.84,-244.05 2.2,-80.09 9.477,-160.88 7.247,-238.19 -1.903,-66.82 -9.266,-139.19 -8.102,-207.889 0.152,-9.461 9.41,-26.973 -6.633,-29.871"
   style="fill:#040606;fill-opacity:1;fill-rule:evenodd;stroke:none"
   id="path217"
   inkscape:connector-curvature="0" /><path
   d="m 299.734,854.48 c -7.398,5.141 -4.785,17.34 -5.504,26.122 -3.214,40.898 -1.984,91.687 -5.199,140.118 -11.179,168.53 -10.164,350.61 -15.554,524.46 -2.11,68.27 -10.481,136.07 -13.997,202.34 -3.242,61.9 3.469,121.89 -0.398,180.06 9.473,1.4 15.422,-16.26 23.555,-22.48 -20.071,-365.83 23.691,-697.77 17.097,-1050.62"
   style="fill:#040606;fill-opacity:1;fill-rule:evenodd;stroke:none"
   id="path219"
   inkscape:connector-curvature="0" /><path
   d="m 936.73,1900.05 c -8.546,-209.98 3.629,-412.59 13.829,-610.42 0.75,-14.24 1.421,-31.4 1.129,-44.05 -0.36,-15.19 -0.309,-34.77 -16.551,-27.68 -7.364,3.24 -6.602,18.94 -7.254,38.17 -6.633,211.88 -15.207,441.04 -14.945,654.46 1.515,5.3 16.496,-8.43 23.792,-10.48"
   style="fill:#040606;fill-opacity:1;fill-rule:evenodd;stroke:none"
   id="path221"
   inkscape:connector-curvature="0" /><path
   d="m 956.77,1901.65 c 5.972,-0.11 11.992,-0.24 17.988,-0.35 7.305,-166.67 9.988,-348.55 17.644,-520.5 1.778,-40.12 4.786,-86.21 1.321,-134.04 -0.871,-12.54 2.222,-30.12 -18.489,-25.66 -16.804,214.77 -23.703,439.68 -20.578,674.59 -0.136,2.86 -0.215,5.7 2.114,5.96"
   style="fill:#040606;fill-opacity:1;fill-rule:evenodd;stroke:none"
   id="path223"
   inkscape:connector-curvature="0" /><path
   d="m 1628.47,1878.3 c 0.09,-268.56 20.45,-519.12 28.39,-784.79 2.51,-84.19 19.5,-167.67 12.99,-252.319 -7.34,0.149 -14.65,0.289 -22,0.438 -12.37,154.492 -25.56,321.591 -28.13,496.681 -2.51,174.18 -25.99,335.78 -16,502.47 0.67,11.16 -5.58,32.49 -1.16,42.02 6.16,13.42 9.39,-6.6 25.91,-4.5"
   style="fill:#040606;fill-opacity:1;fill-rule:evenodd;stroke:none"
   id="path225"
   inkscape:connector-curvature="0" /><path
   d="m 996.711,1898.86 c 8.009,-0.15 15.999,-0.31 23.959,-0.46 -3.51,-124.31 13.23,-248.84 16.62,-374.44 3.35,-126.72 3.29,-254.24 8.4,-380.27 3.2,-78.85 7.76,-166.831 5,-252.178 -0.26,-8.051 7.62,-23.371 -4.59,-27.903 -20.18,-3.769 -16.45,22.422 -17.35,32.36 -14.2,160.641 -11.38,324.131 -16.09,496.461 -4.53,162.7 -13.781,337.79 -18.058,500.49 -0.098,2.81 -0.215,5.66 2.109,5.94"
   style="fill:#040606;fill-opacity:1;fill-rule:evenodd;stroke:none"
   id="path227"
   inkscape:connector-curvature="0" /><path
   d="m 1718.5,1878.5 c -11.64,-363.16 38.26,-692.31 43.36,-1039.121 -9.34,0.16 -18.7,0.359 -28.03,0.551 -6.35,176.77 -15.29,347.97 -25.69,518.63 -10.31,169.55 -27.34,339.68 -19.7,518.54 8.28,2.85 25.88,-1.39 30.06,1.4"
   style="fill:#040606;fill-opacity:1;fill-rule:evenodd;stroke:none"
   id="path229"
   inkscape:connector-curvature="0" /><path
   d="m 302.688,1906.68 c 3.992,-0.05 7.988,-0.14 12,-0.23 11.082,-5.95 5.097,-21.39 5.39,-30.13 2.567,-72.25 -3.086,-154.91 -4.617,-231.95 -3.441,-172.72 15.105,-347.18 11.48,-528.38 -1.765,-88.53 8.774,-176.31 -1.211,-262.049 -8.628,42.098 -5.464,86.118 -5.464,128.168 0.027,129.191 -10.078,256.241 -14.297,386.371 -4.133,127.34 -10.84,258.68 -8.188,392.26 0.942,46.68 -3.386,97.85 2.793,139.98 -0.125,2.87 -0.215,5.68 2.114,5.96"
   style="fill:#040606;fill-opacity:1;fill-rule:evenodd;stroke:none"
   id="path231"
   inkscape:connector-curvature="0" /><path
   d="m 1664.49,1879.56 c 12.24,-15.14 4.1,-41.02 2.8,-62.07 -4.35,-69.57 1.07,-135.99 6.03,-200.16 6.59,-86.44 9.57,-173.05 14.77,-260.37 5.04,-84.3 14.49,-170.33 14.84,-260.37 0.31,-70.43 7.79,-147.02 7.38,-232.199 -0.06,-9.539 6.17,-22 -6.44,-23.871 -15.41,-2.301 -10.48,8.601 -11.52,24.25 -10.94,161.25 -16.29,321.93 -24.29,488.58 -8.56,177.44 -22.75,343.2 -21.59,524.6 6.58,-0.07 10.02,3.15 18.02,1.61"
   style="fill:#040606;fill-opacity:1;fill-rule:evenodd;stroke:none"
   id="path233"
   inkscape:connector-curvature="0" /><path
   d="m 340.613,1903.94 c 25.942,9.83 14.258,-59.86 14.524,-76.32 2.004,-136.32 6.687,-266.58 3.906,-406.19 -2.441,-122.86 -5.938,-245.3 2.703,-366.13 4.238,-59.089 8.945,-117.882 4.348,-182.12 -0.332,-4.93 4.57,-19.321 -6.36,-19.91 -16.882,0.98 -9.539,23.449 -9.324,34.199 0.293,14.883 1.27,31.961 0.867,44 -4.929,146.581 1.465,299.861 -7.007,452.261 -4.094,74.01 -7.766,147.4 -9.622,220.23 -2.492,99.05 8.235,198.43 3.86,293.99 -0.117,2.89 -0.227,5.7 2.105,5.99"
   style="fill:#040606;fill-opacity:1;fill-rule:evenodd;stroke:none"
   id="path235"
   inkscape:connector-curvature="0" /><path
   d="m 430.598,1900.15 c 1.765,-324.78 -0.539,-665.68 6.113,-998.392 0.223,-10.918 7.5,-54.449 -8.984,-49.86 -11.36,3.172 -7.297,8.813 -7.493,26.192 -1.972,166.78 -0.117,334.18 -8.214,492.29 -9.098,177.89 -5.528,347.95 -7.508,526.26 8.933,1.95 21.64,1.54 26.086,3.51"
   style="fill:#040606;fill-opacity:1;fill-rule:evenodd;stroke:none"
   id="path237"
   inkscape:connector-curvature="0" /><path
   d="m 380.605,1901.13 c 10.262,-3.9 5.032,-20.87 5.333,-32.1 2.949,-98.26 -0.633,-195.78 2.109,-296.14 1.641,-59.48 2.461,-118.72 4.48,-178.11 5.743,-172.08 11.289,-335.63 7.856,-508.311 -0.195,-9.867 4.551,-26.34 -6.66,-33.879 -14.035,4.879 -7.383,31.328 -7.051,48.172 2.371,119.378 -15.219,241.238 -12.793,362.318 4.168,210.07 9.297,426.58 0.586,632.17 -1.098,5.23 0.973,7.18 6.14,5.88"
   style="fill:#040606;fill-opacity:1;fill-rule:evenodd;stroke:none"
   id="path239"
   inkscape:connector-curvature="0" /><path
   d="m 2427.13,1700.32 c 6.76,1.93 3.03,-6.27 3.79,-10.07 -2.66,0.05 -5.33,0.12 -7.97,0.15 -1.35,6.22 5.59,3.73 4.18,9.92"
   style="fill:#040606;fill-opacity:1;fill-rule:evenodd;stroke:none"
   id="path241"
   inkscape:connector-curvature="0" /><path
   d="m 2432.54,1670.23 c -8.26,-2.97 -19.69,-2.64 -30.08,-3.4 2.11,14.77 20.47,4.16 30.08,3.4"
   style="fill:#040606;fill-opacity:1;fill-rule:evenodd;stroke:none"
   id="path243"
   inkscape:connector-curvature="0" /><path
   d="m 2433.89,1636.19 c -18.01,0.9 -45.14,-0.61 -53.95,3.06 1.13,13.45 57.11,17.67 53.95,-3.06"
   style="fill:#040606;fill-opacity:1;fill-rule:evenodd;stroke:none"
   id="path245"
   inkscape:connector-curvature="0" /><path
   d="m 2435.43,1614.16 c -1.15,-12.51 -15.45,-3.83 -24.04,-3.52 -16.08,0.55 -37.52,-0.51 -50,2.97 11.48,15.92 53.9,1.59 74.04,0.55"
   style="fill:#040606;fill-opacity:1;fill-rule:evenodd;stroke:none"
   id="path247"
   inkscape:connector-curvature="0" /><path
   d="m 2334.55,1570.16 c 35.2,-5.39 79.67,-1.9 107.7,-14.18 -30.8,-9.88 -72.31,3.65 -107.95,2.16 0.09,4.01 0.15,8.01 0.25,12.02"
   style="fill:#040606;fill-opacity:1;fill-rule:evenodd;stroke:none"
   id="path249"
   inkscape:connector-curvature="0" /><path
   d="m 2443.79,1529.94 c 2.25,-8.93 1.74,-20.53 1.33,-32.02 -34.48,-4.07 -76.45,0.9 -109.94,4.2 0.05,2.66 0.07,5.32 0.13,7.98 25.45,11.42 81.12,-17.52 102.05,1.98 0.55,15.7 -21.4,13.46 -35.66,14.7 -22.46,2 -45.45,2.73 -65.92,5.35 -0.37,1.62 -1.95,2.01 -1.95,4.03 30.37,7.5 75.99,-4.08 109.96,-6.22"
   style="fill:#040606;fill-opacity:1;fill-rule:evenodd;stroke:none"
   id="path251"
   inkscape:connector-curvature="0" /><path
   d="m 2334.77,1482.11 c 38.69,-0.71 72.32,-6.4 111.91,-6.23 -0.08,-4 -0.18,-7.98 -0.23,-11.99 -29.48,-6 -74.3,6.98 -111.9,6.23 0.06,4 0.16,8 0.22,11.99"
   style="fill:#040606;fill-opacity:1;fill-rule:evenodd;stroke:none"
   id="path253"
   inkscape:connector-curvature="0" /><path
   d="m 2447.99,1441.84 c -2.56,-12.89 3.53,-25.87 -0.69,-33.98 -30.39,3.03 -81.95,2.1 -109.74,14.17 23.87,12.53 83.2,-16.34 98.16,6.06 -1.68,14.29 -18.81,9.51 -29.8,10.6 -21.6,2.12 -48.99,5.28 -69.92,5.39 0.04,1.33 0.07,2.66 0.09,3.99 30.9,8.56 79.73,-9.38 111.9,-6.23"
   style="fill:#040606;fill-opacity:1;fill-rule:evenodd;stroke:none"
   id="path255"
   inkscape:connector-curvature="0" /><path
   d="m 2337.03,1396.06 c 37.31,3.78 77.35,-6.83 113.87,-10.29 -29.86,-7.5 -73.67,4.9 -111.97,2.22 -0.12,3.19 1.07,7.63 -1.9,8.07"
   style="fill:#040606;fill-opacity:1;fill-rule:evenodd;stroke:none"
   id="path257"
   inkscape:connector-curvature="0" /><path
   d="m 2450.31,1355.76 c -0.76,-10.73 -16.29,-5.43 -22.11,-5.54 -28.28,-0.49 -60.64,5.14 -87.93,5.74 0.1,4.68 0.2,9.34 0.3,13.99 17.52,-2.19 44.04,-1.81 67.95,-3.34 15.68,-1.02 35.93,-0.02 41.79,-10.85"
   style="fill:#040606;fill-opacity:1;fill-rule:evenodd;stroke:none"
   id="path259"
   inkscape:connector-curvature="0" /><path
   d="m 2451.64,1323.74 c -37.99,2.08 -78.77,1.48 -111.85,8.25 -0.34,1.71 0.84,1.87 2.05,1.95 -0.36,1.72 0.82,1.86 2.01,1.96 9.47,4.65 28.63,-1.67 45.95,-2.91 24.26,-1.78 52.8,1.46 61.84,-9.25"
   style="fill:#040606;fill-opacity:1;fill-rule:evenodd;stroke:none"
   id="path261"
   inkscape:connector-curvature="0" /><path
   d="m 2339.38,1311.99 c 35.01,-5.58 80.29,-1.31 111.87,-10.23 -29.08,-7.54 -80.55,-2.95 -110,2.19 -1.52,1.8 -2.09,4.55 -1.87,8.04"
   style="fill:#040606;fill-opacity:1;fill-rule:evenodd;stroke:none"
   id="path263"
   inkscape:connector-curvature="0" /><path
   d="m 2450.74,1277.75 c -0.11,-5.33 -0.21,-10.68 -0.33,-15.98 -33.75,2.05 -80.21,17.15 -109.94,4.17 0.12,5.99 0.25,12 0.37,17.99 35.1,-3.55 74.28,-3.15 109.9,-6.18"
   style="fill:#040606;fill-opacity:1;fill-rule:evenodd;stroke:none"
   id="path265"
   inkscape:connector-curvature="0" /><path
   d="m 978.586,1189.06 c -51.801,-61.77 -106.582,-131.34 -159.746,-184.88 -2.524,11.84 10.469,17.52 16.519,23.67 45.704,46.5 84.922,110.04 129.231,161.49 4.668,-0.09 9.316,-0.2 13.996,-0.28"
   style="fill:#040606;fill-opacity:1;fill-rule:evenodd;stroke:none"
   id="path267"
   inkscape:connector-curvature="0" /><path
   d="m 934.551,1187.92 c 0.969,-14.13 -15.293,-23.71 -24.715,-35.53 -28.254,-35.35 -59.016,-77.51 -90.246,-110.22 -2.902,1.75 -4.168,5.1 -3.77,10.08 1.399,8.86 4.485,3.33 12.118,5.75 38.222,39.17 63.91,91.33 102.621,129.98 1.328,-0.02 2.671,-0.03 3.992,-0.06"
   style="fill:#040606;fill-opacity:1;fill-rule:evenodd;stroke:none"
   id="path269"
   inkscape:connector-curvature="0" /><path
   d="m 866.492,1187.28 c -16.121,-22.03 -31.812,-44.46 -51.226,-62.99 3.379,30.48 27.593,39.28 37.261,63.25 4.661,-0.08 9.309,-0.18 13.965,-0.26"
   style="fill:#040606;fill-opacity:1;fill-rule:evenodd;stroke:none"
   id="path271"
   inkscape:connector-curvature="0" /><path
   d="m 900.496,1186.59 c -11.734,-18.99 -26.543,-37.94 -41.121,-57.18 -13.367,-17.63 -24.434,-41.82 -44.949,-47.12 4.949,21.08 22.215,34.99 35.047,51.3 12.785,16.38 30.261,32.72 37.043,53.28 4.668,-0.08 9.336,-0.19 13.98,-0.28"
   style="fill:#040606;fill-opacity:1;fill-rule:evenodd;stroke:none"
   id="path273"
   inkscape:connector-curvature="0" /><path
   d="m 984.16,1168.91 c 8.301,0.13 1.817,-13.95 3.621,-20.08 -7.508,3.07 -3.933,-5.39 -10.086,-3.78 -49.004,-65.36 -95.73,-133.07 -155.722,-186.96 0.547,6.43 -3.379,8.539 -1.739,16.051 58.184,61.289 112.625,126.399 163.926,194.769"
   style="fill:#040606;fill-opacity:1;fill-rule:evenodd;stroke:none"
   id="path275"
   inkscape:connector-curvature="0" /><path
   d="m 985.293,1122.9 c 9.355,-19.74 -1.555,-26.62 -16.902,-43.67 -46.274,-51.48 -98.657,-120.101 -145.207,-159.179 0.07,3.347 0.136,6.679 0.195,10.008 63.34,54.531 111.184,125.171 161.914,192.841"
   style="fill:#040606;fill-opacity:1;fill-rule:evenodd;stroke:none"
   id="path277"
   inkscape:connector-curvature="0" /><path
   d="m 986.277,1072.86 c 3.547,0.49 4.043,-1.97 1.953,-2.04 1.028,-12.07 -11.785,-18.27 -18.542,-25.64 -49.266,-54.071 -94.083,-122.989 -145.547,-177.16 -5.813,8.191 2.539,29.898 -3.223,38.089 3.594,6.403 5.098,-5.308 11.965,-2.238 61.012,46.008 102.91,111.969 153.394,168.989"
   style="fill:#040606;fill-opacity:1;fill-rule:evenodd;stroke:none"
   id="path279"
   inkscape:connector-curvature="0" /><path
   d="m 110.398,890.25 c 2.707,-1.371 3.301,-21.602 3.352,-32.082 -8.789,3.363 -1.262,22.32 -3.352,32.082"
   style="fill:#040606;fill-opacity:1;fill-rule:evenodd;stroke:none"
   id="path281"
   inkscape:connector-curvature="0" /><path
   d="m 2109.61,2330.82 c -7.62,-15.86 -33.77,-30.15 -46.93,-47.08 -17.48,5.64 -31.37,-9.31 -54.11,-4.9 6.47,8.85 13.44,17.28 22.47,23.55 20.01,-7.69 71.32,-2.68 44.39,19.1 -10.16,-0.33 -15.02,-6.13 -28.11,-3.45 3.32,22.48 41.47,4.96 62.29,12.78"
   style="fill:#040606;fill-opacity:1;fill-rule:evenodd;stroke:none"
   id="path283"
   inkscape:connector-curvature="0" /><path
   d="m 1366.55,2287.6 c -1.27,-21.16 -35.6,-25.51 -62.55,-26.75 -6.07,20.98 43.71,18.17 62.55,26.75"
   style="fill:#040606;fill-opacity:1;fill-rule:evenodd;stroke:none"
   id="path285"
   inkscape:connector-curvature="0" /><path
   d="m 864.102,1971.52 c 7.746,-8.96 30.207,-25.15 33.203,-40.68 3.523,-18.14 -1.258,-63.25 -1.809,-89.98 -4.019,-203.39 7.149,-390.24 12.387,-586.39 0.308,-11.82 7.82,-28.49 -4.785,-37.91 -15.93,8.02 -9.953,30.13 -9.153,42.2 7.102,110.89 -3.691,223.4 -9.394,332.25 -6.602,126.17 -17.949,257.28 -20.449,380.51"
   style="fill:#040606;fill-opacity:1;fill-rule:evenodd;stroke:none"
   id="path287"
   inkscape:connector-curvature="0" /><path
   d="m 826.523,1188.08 c 6.172,-1.25 -5.468,-16.82 -12.39,-17.77 -2.356,9.07 10.137,8.16 12.39,17.77"
   style="fill:#040606;fill-opacity:1;fill-rule:evenodd;stroke:none"
   id="path289"
   inkscape:connector-curvature="0" />
<text
   xml:space="preserve"
   style="font-style:normal;font-variant:normal;font-weight:normal;font-stretch:normal;font-size:300px;line-height:125%;font-family:'DIN Schablonierschrift';-inkscape-font-specification:'DIN Schablonierschrift';letter-spacing:0px;word-spacing:0px;fill:#000000;fill-opacity:1;stroke:none;stroke-width:7.5px;stroke-linecap:butt;stroke-linejoin:miter;stroke-opacity:1"
   x="2056.2222"
   y="-578.07471"
   id="text147"
   transform="scale(1,-1)"><tspan
     sodipodi:role="line"
     id="tspan145"
     x="2056.2222"
     y="-270.4476"
     style="stroke-width:7.5px" /></text>

</g></g></svg>