<?xml version="1.0" encoding="UTF-8" standalone="no"?>
<!-- Created with Inkscape (http://www.inkscape.org/) -->

<svg
   xmlns:dc="http://purl.org/dc/elements/1.1/"
   xmlns:cc="http://creativecommons.org/ns#"
   xmlns:rdf="http://www.w3.org/1999/02/22-rdf-syntax-ns#"
   xmlns:svg="http://www.w3.org/2000/svg"
   xmlns="http://www.w3.org/2000/svg"
   xmlns:sodipodi="http://sodipodi.sourceforge.net/DTD/sodipodi-0.dtd"
   xmlns:inkscape="http://www.inkscape.org/namespaces/inkscape"
   width="210mm"
   height="297mm"
   viewBox="0 0 210 297"
   version="1.1"
   id="svg8"
   inkscape:version="0.92.3 (2405546, 2018-03-11)"
   sodipodi:docname="bkschrift.svg">
  <defs
     id="defs2" />
  <sodipodi:namedview
     id="base"
     pagecolor="#ffffff"
     bordercolor="#666666"
     borderopacity="1.0"
     inkscape:pageopacity="0.0"
     inkscape:pageshadow="2"
     inkscape:zoom="2.8"
     inkscape:cx="82.551025"
     inkscape:cy="16.310142"
     inkscape:document-units="mm"
     inkscape:current-layer="layer1"
     showgrid="false"
     inkscape:window-width="1920"
     inkscape:window-height="971"
     inkscape:window-x="0"
     inkscape:window-y="31"
     inkscape:window-maximized="1"
     showguides="true"
     inkscape:guide-bbox="true">
    <sodipodi:guide
       position="149.30066,262.78777"
       orientation="0,1"
       id="guide67"
       inkscape:locked="false" />
    <sodipodi:guide
       position="151.66294,253.33855"
       orientation="0,1"
       id="guide69"
       inkscape:locked="false" />
  </sodipodi:namedview>
  <metadata
     id="metadata5">
    <rdf:RDF>
      <cc:Work
         rdf:about="">
        <dc:format>image/svg+xml</dc:format>
        <dc:type
           rdf:resource="http://purl.org/dc/dcmitype/StillImage" />
        <dc:title></dc:title>
      </cc:Work>
    </rdf:RDF>
  </metadata>
  <g
     inkscape:label="Ebene 1"
     inkscape:groupmode="layer"
     id="layer1">
    <path
       style="stroke-width:0.26458332"
       d="m -22.300744,294.73233 -0.09449,9.44922 h 37.986828 l -0.188989,-9.44922 z m 2.203999,0.93497 c 0.169333,0 0.317418,0.0566 0.444418,0.1695 0.148166,0.13406 0.22221,0.29957 0.22221,0.49713 v 6.52983 c 0,0.16934 -0.06697,0.32122 -0.201022,0.45527 -0.127,0.127 -0.28216,0.19069 -0.465606,0.19069 -0.169334,0 -0.321212,-0.0604 -0.455269,-0.18035 -0.127,-0.11995 -0.197763,-0.27511 -0.211873,-0.46561 v -6.55102 c 0.0141,-0.18344 0.08108,-0.33481 0.201023,-0.45475 0.127,-0.127 0.282675,-0.19069 0.466119,-0.19069 z m 13.2989327,0 c 0.169333,0 0.317415,0.0566 0.444415,0.1695 0.0635,0.0635 0.113035,0.13375 0.148312,0.21136 0.04233,0.0776 0.06356,0.1658 0.06356,0.26458 v 1.47123 h 0.613396 c 0.141113,0 0.254331,0.0425 0.338998,0.12712 0.119946,0.10584 0.179834,0.23269 0.179834,0.38086 0,0.14817 -0.05989,0.27502 -0.179834,0.38085 -0.03528,0.0282 -0.07066,0.0494 -0.105937,0.0636 -0.03528,0.0141 -0.07066,0.0283 -0.105936,0.0424 -0.03528,0.0141 -0.07394,0.0212 -0.116271,0.0212 h -0.62425 -1.322917 -0.582396 c -0.14111,0 -0.253812,-0.0425 -0.338478,-0.12712 -0.11289,-0.0988 -0.1695,-0.22563 -0.1695,-0.38085 0,-0.15523 0.05661,-0.28208 0.1695,-0.38086 0.04233,-0.0423 0.09515,-0.0744 0.158646,-0.0956 0.04939,-0.0212 0.105995,-0.0315 0.169498,-0.0315 h 0.59273 v -1.46038 c -3e-6,-0.0423 0.0071,-0.0919 0.02119,-0.14831 v -0.0315 l 0.01035,-0.0212 v -0.0109 l 0.01085,-0.0212 0.01035,-0.0212 v -0.0104 c 0.04233,-0.0847 0.09515,-0.1587 0.158647,-0.2222 0.127,-0.11289 0.278882,-0.1695 0.455271,-0.1695 z m 14.944306,0 c 0.169334,0 0.317418,0.0528 0.444418,0.15865 0.134054,0.127 0.208098,0.28596 0.222208,0.47646 v 6.57221 c -0.0071,0.18344 -0.07402,0.3348 -0.201023,0.45475 -0.127,0.11994 -0.282159,0.18035 -0.465603,0.18035 -0.183446,0 -0.338605,-0.0637 -0.465605,-0.19069 -0.127,-0.127 -0.190686,-0.28216 -0.190686,-0.4656 v -6.5195 c 0,-0.18345 0.06369,-0.33861 0.190686,-0.46561 0.127,-0.13405 0.282159,-0.20102 0.465605,-0.20102 z m 4.7428633,0.1695 c 0.183443,0 0.338606,0.0599 0.465606,0.17984 0.134053,0.11994 0.20102,0.2713 0.20102,0.45475 v 0.0532 c -0.0071,0.18344 -0.07402,0.33481 -0.20102,0.45475 -0.127,0.11995 -0.282163,0.18035 -0.465606,0.18035 -0.183444,0 -0.338606,-0.0637 -0.465606,-0.19068 -0.127,-0.127 -0.190685,-0.28216 -0.190685,-0.46561 0,-0.20461 0.07404,-0.37392 0.222208,-0.50798 0.127,-0.10583 0.271806,-0.15864 0.434083,-0.15864 z m -1.705322,1.72496 c 0.141111,0 0.267965,0.0457 0.380855,0.13746 l 0.02119,0.032 c 0.112887,0.0988 0.169497,0.22891 0.169497,0.39119 v 0.0424 c 0,0.0917 -0.01744,0.16956 -0.05271,0.23306 -0.03528,0.0564 -0.08153,0.11634 -0.137975,0.17983 l -1.555462,1.65107 1.703774,2.27531 c 0.08467,0.0988 0.1342,0.22563 0.14831,0.38086 v 0.0424 c -0.0141,0.16227 -0.08108,0.3 -0.20102,0.41289 -0.11289,0.11289 -0.250616,0.1695 -0.412896,0.1695 -0.08467,0 -0.176657,-0.0212 -0.275433,-0.0636 -0.09878,-0.0423 -0.165746,-0.0989 -0.201023,-0.1695 l -0.03153,-0.0424 -1.6086873,-2.23294 v -1.46037 l 1.5874993,-1.757 c 0.0635,-0.0705 0.130467,-0.12337 0.201023,-0.15865 0.07761,-0.0423 0.165806,-0.0636 0.264583,-0.0636 z m -28.762069,0.0424 c 0.324554,0 0.652307,0.0599 0.98392,0.17983 0.33161,0.11995 0.628295,0.30341 0.889349,0.55036 0.268113,0.23989 0.483161,0.54313 0.64544,0.91002 0.169334,0.36689 0.254246,0.79371 0.254246,1.28054 0,0.47273 -0.07784,0.89627 -0.233058,1.27021 -0.148169,0.36689 -0.352861,0.67721 -0.613918,0.93121 -0.261054,0.254 -0.564298,0.44782 -0.910021,0.58188 -0.338667,0.13405 -0.698521,0.20153 -1.079521,0.20153 -0.303387,0 -0.582126,-0.0463 -0.836123,-0.13797 -0.246946,-0.0988 -0.458716,-0.22564 -0.635106,-0.38086 v -1.32292 c 0.141113,0.18345 0.321297,0.33153 0.54002,0.44442 0.218723,0.10584 0.465357,0.15865 0.740524,0.15865 0.26811,0 0.508185,-0.049 0.719851,-0.1478 0.211667,-0.0988 0.388057,-0.22942 0.529167,-0.3917 0.148167,-0.16228 0.260871,-0.34575 0.338482,-0.55036 0.07761,-0.20461 0.116787,-0.41638 0.116787,-0.6351 0,-0.23283 -0.04246,-0.45168 -0.127122,-0.65629 -0.08467,-0.20461 -0.201168,-0.38428 -0.349335,-0.5395 -0.148166,-0.16228 -0.324553,-0.28914 -0.529166,-0.38086 -0.204611,-0.0917 -0.426736,-0.13797 -0.666626,-0.13797 -0.289277,0 -0.546785,0.0604 -0.772562,0.18035 -0.218723,0.11288 -0.398907,0.26097 -0.54002,0.44441 v -1.31258 c 0.254,-0.21166 0.52238,-0.35267 0.804603,-0.42323 0.282223,-0.0776 0.525576,-0.11627 0.730189,-0.11627 z m 30.467391,0 c 0.17639,0 0.327752,0.0599 0.454752,0.17983 0.127,0.11995 0.197763,0.26803 0.211874,0.44442 v 4.64623 c -0.0071,0.18344 -0.07402,0.33481 -0.20102,0.45475 -0.127003,0.11995 -0.282163,0.18035 -0.465606,0.18035 -0.17639,0 -0.328269,-0.0604 -0.455269,-0.18035 -0.127,-0.11994 -0.193966,-0.27131 -0.201022,-0.45475 v -4.64623 c 0.0141,-0.18344 0.08488,-0.33153 0.211873,-0.44442 0.127,-0.11994 0.275085,-0.17983 0.444418,-0.17983 z m -24.546306,0.0104 v 1.13275 c -0.218723,0.0212 -0.412543,0.074 -0.581877,0.15865 -0.169333,0.0776 -0.314137,0.17616 -0.43408,0.2961 -0.11289,0.11995 -0.204881,0.2506 -0.275437,0.39171 -0.0635,0.14111 -0.102161,0.27504 -0.116271,0.40204 h 1.407665 v 1.00561 h -1.428853 c 0.0141,0.20461 0.06365,0.39136 0.148312,0.56069 0.08467,0.16228 0.194088,0.30329 0.328144,0.42323 0.134057,0.11289 0.282141,0.20488 0.444418,0.27544 0.162277,0.0635 0.331589,0.10216 0.507979,0.11627 v 1.14308 c -0.402166,-0.0212 -0.772377,-0.11643 -1.111043,-0.28577 -0.338667,-0.16933 -0.631556,-0.38818 -0.878499,-0.65629 -0.23989,-0.27517 -0.43043,-0.58169 -0.571542,-0.92035 -0.134054,-0.34573 -0.201021,-0.70558 -0.201021,-1.07953 0,-0.381 0.06697,-0.74465 0.201021,-1.09037 0.141112,-0.35278 0.334933,-0.6631 0.581877,-0.93121 0.246943,-0.26811 0.536553,-0.48695 0.868164,-0.65629 0.338666,-0.16933 0.708877,-0.2646 1.111043,-0.28577 z m 0.317294,0 c 0.388056,0.0212 0.747908,0.11316 1.079521,0.27544 0.3386667,0.16228 0.6315547,0.37025 0.8784987,0.62425 0.246946,0.254 0.441282,0.54309 0.582393,0.86765 0.14111,0.3175 0.211357,0.64577 0.211357,0.98443 -0.0141,0.17639 -0.08436,0.32827 -0.211357,0.45527 -0.119944,0.11994 -0.271825,0.17983 -0.455269,0.17983 h -2.0851437 v -1.00562 h 1.4288527 c -0.0141,-0.127 -0.05657,-0.26093 -0.1271237,-0.40204 -0.0635,-0.14111 -0.154975,-0.27176 -0.274918,-0.39171 -0.119944,-0.11994 -0.268029,-0.22229 -0.444418,-0.30696 -0.169334,-0.0917 -0.36367,-0.14453 -0.582393,-0.15864 z m 13.5247557,0 c 0.17639,0 0.327753,0.0637 0.454753,0.19069 0.134054,0.11994 0.20102,0.26475 0.20102,0.43408 v 4.593 0.0424 c -0.0071,0.18344 -0.07402,0.3386 -0.20102,0.4656 -0.127,0.11995 -0.28216,0.17984 -0.465606,0.17984 -0.176387,0 -0.328269,-0.0599 -0.455269,-0.17984 -0.127,-0.127 -0.193966,-0.27888 -0.201022,-0.45527 v -4.64571 c 0.01413,-0.17639 0.08108,-0.32499 0.201022,-0.44493 0.127,-0.11995 0.282679,-0.17983 0.466122,-0.17983 z m 2.296501,0 c 0.451554,0 0.818486,0.0778 1.100707,0.23306 0.282223,0.15522 0.500552,0.35284 0.655775,0.59273 0.162277,0.23989 0.26842,0.50068 0.317809,0.7829 0.05645,0.27517 0.08475,0.53267 0.08475,0.77256 v 2.86804 c 0,0.18345 -0.06368,0.33861 -0.190685,0.46561 -0.127,0.127 -0.28216,0.19068 -0.465606,0.19068 -0.183443,0 -0.3424,-0.0637 -0.476456,-0.19068 -0.127,-0.127 -0.19017,-0.28216 -0.19017,-0.46561 v -2.53989 c 0,-0.20461 -0.02122,-0.39516 -0.06356,-0.57154 -0.03528,-0.18345 -0.09897,-0.33861 -0.190688,-0.46561 -0.09172,-0.13405 -0.215297,-0.2364 -0.37052,-0.30696 -0.155221,-0.0776 -0.349044,-0.11627 -0.581874,-0.11627 -0.22578,0 -0.416322,0.0316 -0.571543,0.0951 -0.155223,0.0635 -0.282077,0.15549 -0.380854,0.27543 v -1.20664 c 0.15522,-0.11994 0.334888,-0.21849 0.539501,-0.29611 0.211667,-0.0776 0.472969,-0.11678 0.783415,-0.11678 z m -6.72724,0.0212 v 1.249 c -0.211666,0.0212 -0.409284,0.0778 -0.592727,0.1695 -0.17639,0.0917 -0.33155,0.2115 -0.465606,0.35967 -0.134054,0.14817 -0.240197,0.32076 -0.31781,0.51831 -0.07761,0.19756 -0.116271,0.41313 -0.116271,0.64596 0,0.23283 0.03866,0.44788 0.116271,0.64544 0.07761,0.19755 0.183756,0.37015 0.31781,0.51831 0.134056,0.14817 0.289216,0.26847 0.465606,0.36019 0.183443,0.0917 0.381061,0.14781 0.592727,0.16898 v 1.24902 c -0.45861,-0.0212 -0.864716,-0.11972 -1.217496,-0.29611 -0.34572,-0.17639 -0.638609,-0.40231 -0.878498,-0.67748 -0.23989,-0.27516 -0.419558,-0.5822 -0.539502,-0.92087 -0.119946,-0.34572 -0.179834,-0.6947 -0.179834,-1.04748 0,-0.34572 0.05989,-0.68814 0.179834,-1.02681 0.119944,-0.34572 0.299612,-0.65604 0.539502,-0.93121 0.239889,-0.27517 0.532778,-0.50109 0.878498,-0.67748 0.35278,-0.18344 0.758886,-0.28579 1.217496,-0.30695 z m 0.317294,0 c 0.45861,0.0212 0.860922,0.12351 1.20664498,0.30696 0.352777,0.17639 0.648947,0.40231 0.888834,0.67748 0.239889,0.27516 0.419557,0.58548 0.539504,0.93121 0.119943,0.33866 0.18035,0.68108 0.18035,1.02681 0,0.35277 -0.06041,0.70176 -0.18035,1.04748 -0.119947,0.33867 -0.299615,0.6457 -0.539504,0.92087 -0.239887,0.27517 -0.536057,0.50109 -0.888834,0.67748 -0.34572298,0.17639 -0.74803498,0.27494 -1.20664498,0.29611 v -1.24902 c 0.211667,-0.0212 0.40549,-0.0773 0.581877,-0.16898 0.183446,-0.0917 0.338606,-0.21202 0.46560598,-0.36019 0.134053,-0.14816 0.240199,-0.32076 0.317809,-0.51831 0.07761,-0.19756 0.116271,-0.41261 0.116271,-0.64544 0,-0.23283 -0.03866,-0.4484 -0.116271,-0.64596 -0.07761,-0.19755 -0.183756,-0.37014 -0.317809,-0.51831 -0.12699998,-0.14817 -0.28215998,-0.26795 -0.46560598,-0.35967 -0.176387,-0.0917 -0.37021,-0.14835 -0.581877,-0.16951 z m -5.536094,1.48156 h 1.322917 v 3.74654 c -3e-6,0.0635 -0.0038,0.10976 -0.01085,0.13798 l -0.01035,0.0315 v 0.0212 l -0.01085,0.0212 -0.01035,0.0212 v 0.0103 l -0.01085,0.0212 c -0.03528,0.0776 -0.0843,0.14837 -0.147793,0.21187 -0.0635,0.0564 -0.134263,0.10219 -0.211873,0.13747 -0.07761,0.0282 -0.158729,0.0424 -0.243396,0.0424 -0.09172,0 -0.176638,-0.0142 -0.254248,-0.0424 -0.07761,-0.0353 -0.144579,-0.081 -0.201023,-0.13747 -0.14111,-0.127 -0.211354,-0.28595 -0.211354,-0.47645 z m -2.192115,2.33888 c 0.169333,0 0.320696,0.0675 0.454752,0.20154 0.141111,0.127 0.211873,0.28216 0.211873,0.4656 0,0.18345 -0.07784,0.35983 -0.233061,0.52917 -0.155223,0.16933 -0.349043,0.31741 -0.581877,0.44441 -0.2328327,0.127 -0.4870597,0.22935 -0.7622267,0.30696 -0.275167,0.0776 -0.532672,0.11628 -0.772562,0.11628 v -1.14309 c 0.261056,-0.0141 0.483698,-0.074 0.667144,-0.17983 0.183444,-0.11289 0.334806,-0.2577 0.45475,-0.43408 l 0.02119,-0.0212 c 0.05645,-0.0776 0.13049,-0.14458 0.2222097,-0.20102 0.09878,-0.0564 0.20492,-0.0847 0.31781,-0.0847 z"
       id="rect29"
       inkscape:connector-curvature="0"
       sodipodi:nodetypes="cccccscsssscccsssccccscscccsccscsccsccccccccccsssccssssscssssccssscssscsscccccccscccccccsssccscccsccccscccssccsccccssccccsccccsccccccccccccccsccsccccccccccsccccccccscccccsccccsscccsssscsscccsccccscccccsccccccscscsccccccsccccccccsccccccccsccccccccsccscscscscccccccscccc" />
    <g
       id="g44"
       transform="translate(55.940476,-2.2678571)">
      <g
         id="text12"
         style="font-style:normal;font-variant:normal;font-weight:normal;font-stretch:normal;font-size:10.58333302px;line-height:125%;font-family:'AG Stencil';-inkscape-font-specification:'AG Stencil';letter-spacing:0px;word-spacing:0px;fill:#000000;fill-opacity:1;stroke:none;stroke-width:0.26458332px;stroke-linecap:butt;stroke-linejoin:miter;stroke-opacity:1"
         aria-label="Betonki" />
    </g>
  </g>
</svg>
